<?xml version="1.0" encoding="UTF-8" standalone="no"?>
<svg
   width="321.98337"
   height="237.31998"
   viewBox="0 0 321.98336 237.31998"
   fill="none"
   version="1.1"
   id="svg244"
   sodipodi:docname="person_chat.svg"
   inkscape:version="1.2.1 (9c6d41e410, 2022-07-14)"
   xmlns:inkscape="http://www.inkscape.org/namespaces/inkscape"
   xmlns:sodipodi="http://sodipodi.sourceforge.net/DTD/sodipodi-0.dtd"
   xmlns="http://www.w3.org/2000/svg"
   xmlns:svg="http://www.w3.org/2000/svg">
  <sodipodi:namedview
     id="namedview246"
     pagecolor="#ffffff"
     bordercolor="#000000"
     borderopacity="0.25"
     inkscape:showpageshadow="2"
     inkscape:pageopacity="0.0"
     inkscape:pagecheckerboard="0"
     inkscape:deskcolor="#d1d1d1"
     showgrid="false"
     inkscape:zoom="2.9959677"
     inkscape:cx="152.03769"
     inkscape:cy="124"
     inkscape:window-width="1920"
     inkscape:window-height="1012"
     inkscape:window-x="0"
     inkscape:window-y="32"
     inkscape:window-maximized="1"
     inkscape:current-layer="svg244" />
  <defs
     id="defs242">
    <linearGradient
       id="paint0_linear_15_165"
       x1="318.41901"
       y1="49.961899"
       x2="180.27699"
       y2="122.532"
       gradientUnits="userSpaceOnUse">
      <stop
         id="stop407" />
      <stop
         offset="1"
         stop-opacity="0"
         id="stop409" />
    </linearGradient>
    <linearGradient
       id="paint1_linear_15_165"
       x1="-1830.1"
       y1="20833.1"
       x2="11089.5"
       y2="19679.801"
       gradientUnits="userSpaceOnUse">
      <stop
         id="stop412" />
      <stop
         offset="1"
         stop-opacity="0"
         id="stop414" />
    </linearGradient>
    <linearGradient
       id="paint2_linear_15_165"
       x1="1221.23"
       y1="2625.6499"
       x2="3567.4299"
       y2="1601.29"
       gradientUnits="userSpaceOnUse">
      <stop
         id="stop417" />
      <stop
         offset="1"
         stop-opacity="0"
         id="stop419" />
    </linearGradient>
    <linearGradient
       id="paint3_linear_15_165"
       x1="516.854"
       y1="215.15199"
       x2="546.27899"
       y2="207.59"
       gradientUnits="userSpaceOnUse">
      <stop
         id="stop422" />
      <stop
         offset="1"
         stop-opacity="0"
         id="stop424" />
    </linearGradient>
    <linearGradient
       id="paint4_linear_15_165"
       x1="525.67798"
       y1="216.965"
       x2="555.58801"
       y2="202.11099"
       gradientUnits="userSpaceOnUse">
      <stop
         id="stop427" />
      <stop
         offset="1"
         stop-opacity="0"
         id="stop429" />
    </linearGradient>
    <linearGradient
       id="paint5_linear_15_165"
       x1="535.586"
       y1="206.85001"
       x2="565.508"
       y2="191.961"
       gradientUnits="userSpaceOnUse">
      <stop
         id="stop432" />
      <stop
         offset="1"
         stop-opacity="0"
         id="stop434" />
    </linearGradient>
    <clipPath
       id="clip0_15_165">
      <rect
         width="322"
         height="242"
         fill="#ffffff"
         id="rect437"
         x="0"
         y="0" />
    </clipPath>
  </defs>
  <g
     clip-path="url(#clip0_15_165)"
     id="g405"
     transform="translate(2.6644525e-7,-2.3269057)">
    <path
       opacity="0.18"
       d="m 147.269,4.34989 c 8.776,1.34936 17.315,3.93446 25.362,7.67791 11.159,5.331 20.37,13.5146 30.86,19.8876 17.875,10.8542 39.28,16.9945 59.599,21.2431 8.116,1.7096 16.333,3.2978 23.637,7.1519 11.159,5.9076 19.153,16.6202 24.712,27.9802 12.174,24.9354 14.396,55.1814 3.561,80.7744 -10.591,24.875 -34.786,45.885 -62.277,48.556 -34.695,3.551 -69.379,10.328 -104.135,14.617 -24.134,3.561 -48.369,7.081 -72.7672,7.395 C 65.6762,239.744 55.2679,239.248 45.6,235.981 27.4615,229.82 11.0779,217.125 3.97672,198.998 1.12356,191.646 -0.22344,183.799 0.0152657,175.92 0.253972,168.041 2.07354,160.289 5.36653,153.123 c 4.05785,-8.791 10.36777,-16.55 13.31987,-25.775 2.668,-8.336 2.3738,-17.136 1.9681,-25.765 -0.5072,-8.0347 0.508,-16.0925 2.9926,-23.7521 C 28.4557,62.1616 36.0337,47.1801 46.7362,34.7175 59.9242,19.2909 78.0831,7.73868 98.0781,4.01607 c 7.7369,-1.29783 15.5809,-1.85 23.4239,-1.64887 8.628,-0.00263 17.242,0.66025 25.767,1.98269 z"
       fill="#68e1fd"
       id="path311" />
    <path
       d="m 93.0362,175.651 c -0.033,1.013 0.1575,2.021 0.558,2.953 0.494,0.877 1.2442,1.583 2.1506,2.023 1.9435,1.002 4.1981,1.223 6.3002,0.618 0.286,-0.057 0.544,-0.211 0.73,-0.435 0.101,-0.193 0.144,-0.411 0.122,-0.628 -0.157,-1.155 -0.743,-2.21 -1.644,-2.953 -0.899,-0.729 -1.6673,-1.605 -2.272,-2.59 -1.0145,-1.942 -0.2435,-7.081 -3.9158,-6.292 -3.0637,0.637 -2.1101,5.108 -2.029,7.304 z"
       fill="#ffbaa8"
       id="path313" />
    <path
       d="m 92.529,179.12 c 0,0 -0.5174,1.275 0.1217,2.023 0.6392,0.749 7.2331,4.836 11.6763,1.548 4.444,-3.288 -6.0257,-3.723 -6.0257,-3.723 z"
       fill="#68e1fd"
       id="path315" />
    <path
       d="m 92.7928,176.136 c 0.2028,-0.098 0.4339,-0.12 0.6516,-0.062 0.2177,0.057 0.4075,0.191 0.5353,0.376 0.4366,0.485 0.9895,0.851 1.6069,1.065 0.6174,0.215 1.2792,0.269 1.9234,0.159 1.4405,-0.344 2.0289,-2.024 2.739,-2.024 0.71,0 4.565,3.258 4.778,4.654 0.213,1.396 -1.745,2.428 -3.916,2.559 -2.1706,0.132 -7.1009,-1.355 -8.0038,-2.499 -0.3901,-0.627 -0.6224,-1.339 -0.6771,-2.075 -0.0548,-0.737 0.0696,-1.475 0.3627,-2.153 z"
       fill="#ffffff"
       id="path317" />
    <path
       d="m 80.4468,177.613 c -0.033,1.013 0.1574,2.022 0.5579,2.954 0.4951,0.879 1.2495,1.585 2.1608,2.023 1.9397,1.002 4.1913,1.223 6.2897,0.617 0.2996,-0.063 0.5662,-0.232 0.7507,-0.475 0.1012,-0.193 0.1435,-0.411 0.1217,-0.628 -0.1565,-1.155 -0.7431,-2.21 -1.6434,-2.953 -0.8993,-0.729 -1.6677,-1.605 -2.2724,-2.59 -0.9637,-1.942 -0.2435,-7.081 -3.9158,-6.282 -3.084,0.708 -2.1304,5.179 -2.0492,7.334 z"
       fill="#ffbaa8"
       id="path319" />
    <path
       d="m 79.9395,181.123 c 0,0 -0.5173,1.275 0.1218,2.023 0.6391,0.749 7.2331,4.836 11.6764,1.548 4.4433,-3.288 -6.0259,-3.723 -6.0259,-3.723 z"
       fill="#68e1fd"
       id="path321" />
    <path
       d="m 80.2032,178.149 c 0.2013,-0.101 0.4323,-0.125 0.6504,-0.07 0.2182,0.056 0.4087,0.189 0.5366,0.374 0.4351,0.487 0.9871,0.857 1.6044,1.075 0.6174,0.218 1.2799,0.276 1.9259,0.169 1.4405,-0.344 2.0289,-2.023 2.7492,-2.023 0.7202,0 4.5549,3.257 4.7679,4.653 0.2131,1.396 -1.7448,2.428 -3.9158,2.559 -2.1709,0.132 -7.1012,-1.355 -8.0041,-2.498 -0.3934,-0.628 -0.6276,-1.342 -0.6824,-2.081 -0.0548,-0.738 0.0715,-1.479 0.3679,-2.158 z"
       fill="#ffffff"
       id="path323" />
    <path
       d="m 77.8294,123.574 c 0,0 -0.6898,37.601 2.1,50.144 l 7.1012,0.87 4.91,-51.479 z"
       fill="#473f47"
       id="path325" />
    <path
       d="m 99.7215,119.467 c 0,0 3.3375,20.232 -0.7102,52.855 l -7.1012,0.88 -4.91,-51.489 z"
       fill="#473f47"
       id="path327" />
    <path
       d="m 99.0722,103.606 c 0,0.678 0.0913,1.366 0.0913,2.023 0,3.753 -0.8724,7.617 0.2536,11.299 0.3634,0.784 0.4699,1.662 0.3044,2.509 -0.3194,0.679 -0.8795,1.216 -1.5724,1.507 -3.3173,1.811 -7.1013,2.367 -10.8953,2.893 -2.8101,0.395 -6.8071,1.224 -9.4041,-0.283 -0.9893,-0.732 -1.6519,-1.821 -1.8463,-3.034 -0.995,-3.874 -1.5832,-7.841 -1.755,-11.836 0,-0.526 -0.071,-1.012 -0.1015,-1.558 -0.213,-3.601 -0.2942,-7.1921 -0.2232,-10.7832 0,-2.6099 0.2638,-5.4322 1.9681,-7.4048 2.2724,-2.6199 6.665,-4.3599 10.0026,-4.9668 1.085,-0.2153 2.196,-0.2698 3.297,-0.1619 1.5557,0.249 3.058,0.7586 4.4433,1.5073 1.6637,0.8194 3.1347,1.5072 3.9463,3.1359 0.8947,1.8899 1.5196,3.8954 1.8564,5.9582 0.2976,1.9321 0.3317,3.8955 0.1015,5.8363 -0.1015,0.951 -0.3449,1.892 -0.4362,2.843 -0.0203,0.172 -0.0203,0.344 -0.0305,0.516 z"
       fill="#ffffff"
       id="path329" />
    <path
       d="m 95.9274,86.6316 9.9316,5.2805 21.02,-7.4452 3.652,8.9625 c 0,0 -19.275,9.8326 -22.998,9.8726 -3.723,0.041 -13.5127,-2.66 -13.5127,-2.66 z"
       fill="#ffffff"
       id="path331" />
    <path
       opacity="0.1"
       d="m 104.642,97.5769 c -1.126,-0.1315 -6.7567,-2.9234 -7.3755,-3.3888 0.8623,1.8108 2.0289,7.4349 2.2217,7.5469 2.1228,1.056 4.4308,1.692 6.7968,1.871 2.373,0.174 4.751,-0.272 6.898,-1.295 1.055,-0.614 2.142,-1.171 3.257,-1.669 0.669,-0.253 1.369,-0.395 2.029,-0.617 1.754,-0.6623 3.404,-1.5719 4.9,-2.701 0.243,-0.1195 0.459,-0.2883 0.634,-0.4955 0.174,-0.2073 0.304,-0.4484 0.38,-0.7083 0.101,-0.6676 -0.497,-1.2341 -1.106,-1.5274 -0.959,-0.4197 -1.995,-0.6367 -3.043,-0.6373 -1.377,-0.1774 -2.772,-0.1468 -4.139,0.091 -0.862,0.2428 -1.502,1.0116 -2.344,1.4263 -2.434,1.0622 -6.472,2.4076 -9.109,2.1041 z"
       fill="#020202"
       id="path333" />
    <path
       opacity="0.1"
       d="m 83.7235,124.859 c -1.0957,0.314 -3.6115,-0.678 -4.4434,-0.829 -0.5072,-0.081 -1.0144,-0.334 -1.4507,-0.456 -2.4955,-0.617 -2.7897,-7.596 -3.0433,-9.478 -0.6493,-4.967 -1.6435,-10.116 -1.7043,-15.0928 -0.1085,-1.9187 0.1146,-3.8417 0.6594,-5.685 0.282,-0.9221 0.7634,-1.7714 1.4101,-2.4879 0.6468,-0.7166 1.4432,-1.2831 2.3332,-1.6596 0.349,-0.1469 0.7344,-0.1857 1.1058,-0.1113 1.5115,0.3844 1.826,2.883 2.0898,4.0463 0.4565,2.1244 1.4912,3.0955 2.5463,4.7949 1.055,1.6995 1.126,3.8234 2.1303,5.5734 0.2481,0.489 0.5933,0.923 1.0145,1.275 0.8576,0.499 1.8539,0.708 2.8405,0.597 h 7.1621 c 0.5763,-0.08 1.1613,0.065 1.6333,0.404 0.2069,0.271 0.3523,0.583 0.4259,0.915 0.0735,0.332 0.0736,0.675 10e-5,1.007 l -0.4362,5.281 c 0.0071,0.231 -0.0528,0.459 -0.1724,0.657 -0.2056,0.211 -0.4782,0.343 -0.771,0.375 -1.9619,0.282 -3.868,0.865 -5.6506,1.73 -1.7308,1.185 -3.5721,2.201 -5.4983,3.034 -0.5553,0.249 -1.0632,0.591 -1.5015,1.012 -0.5118,0.637 -0.7684,1.441 -0.7202,2.256 0,0.516 0.6594,2.104 0.4666,2.478 -0.0429,0.086 -0.1028,0.163 -0.176,0.225 -0.0732,0.063 -0.1582,0.11 -0.25,0.139 z"
       fill="#020202"
       id="path335" />
    <path
       d="m 91.3826,80.8758 c -0.3967,0.4376 -0.9429,0.7118 -1.5318,0.7688 -0.4926,0.0454 -0.9884,0.0454 -1.4811,0 h -0.2739 c -0.066,-0.021 -0.1369,-0.021 -0.2029,0 -0.0301,0.0285 -0.0538,0.0631 -0.0696,0.1015 -0.0157,0.0383 -0.0231,0.0796 -0.0217,0.121 -0.0863,0.9827 -0.0863,1.9711 0,2.9538 0,0.1821 0,0.3541 0,0.5362 0.0521,0.1818 0.0521,0.3745 0,0.5563 -0.1415,0.2012 -0.3563,0.3391 -0.5985,0.3844 -0.4315,0.1467 -0.8833,0.2252 -1.3391,0.2327 -0.9815,-0.0695 -1.93,-0.3824 -2.7594,-0.9104 0.0716,-1.6905 -0.0168,-3.384 -0.2637,-5.0579 -0.3145,-2.1547 -0.8826,-4.3093 -0.6493,-6.4741 0.0606,-0.8469 0.3792,-1.6551 0.913,-2.3165 0.4269,-0.4037 0.9331,-0.7146 1.4866,-0.9131 0.5536,-0.1985 1.1424,-0.2803 1.7293,-0.2401 1.5554,-0.0223 3.0854,0.395 4.4129,1.2037 0.4869,0.3339 0.5377,0.7587 0.6492,1.305 0.1725,0.8497 0.3044,1.7095 0.4058,2.5694 0.1015,0.8598 0.1623,1.9624 0.1826,2.9538 0.0765,0.7881 -0.1322,1.5774 -0.5884,2.2255 z"
       fill="#ffbaa8"
       id="path337" />
    <path
       d="m 89.658,72.3077 c -1.0144,0.2731 -2.3231,0 -3.3477,0.4451 -0.7026,0.3589 -1.2517,0.9588 -1.5462,1.6892 -0.2945,0.7304 -0.3146,1.5423 -0.0567,2.2863 -0.4159,0.1517 -0.497,-0.607 -0.8217,-0.9104 -0.3246,-0.3035 -1.0144,0.1011 -1.1057,0.6272 0.0283,0.5285 0.1849,1.0423 0.4565,1.4971 0.4005,0.9299 0.472,1.9679 0.2029,2.9437 -0.071,0.2326 -0.2435,0.5058 -0.4667,0.4451 -0.2232,-0.0607 -0.3956,-0.4552 -0.5377,-0.6272 -0.226,-0.2692 -0.4736,-0.5196 -0.7405,-0.7486 -0.5072,-0.4451 -1.0753,-0.8396 -1.6029,-1.2746 -0.5275,-0.4349 -0.7202,-0.8497 -1.3289,-1.0115 -0.5754,-0.1149 -1.1587,-0.1859 -1.7449,-0.2125 -0.4607,-0.0887 -0.8875,-0.3035 -1.2326,-0.6205 -0.3451,-0.317 -0.5948,-0.7235 -0.7212,-1.1741 -0.1264,-0.4506 -0.1244,-0.9273 0.0057,-1.3769 0.13,-0.4495 0.3831,-0.854 0.7308,-1.1681 0.2006,-0.139 0.3699,-0.3181 0.4971,-0.5261 0.0764,-0.2348 0.0972,-0.4841 0.0608,-0.7283 0.0135,-0.6386 0.1855,-1.2639 0.5006,-1.8199 0.3151,-0.5561 0.7635,-1.0256 1.3052,-1.3666 1.086,-0.6825 2.3482,-1.0341 3.6317,-1.0115 0.2779,0.0181 0.5567,-0.0162 0.8218,-0.1012 0.2448,-0.125 0.4675,-0.289 0.6594,-0.4856 0.5424,-0.4578 1.1802,-0.7898 1.867,-0.972 0.6869,-0.1821 1.4058,-0.2098 2.1047,-0.081 0.6989,0.1287 1.3604,0.4107 1.9367,0.8254 0.5763,0.4148 1.053,0.9521 1.3957,1.573 0.4143,0.6934 0.5755,1.5081 0.4565,2.3064 -0.0363,0.3737 -0.1888,0.7266 -0.4362,1.0096 -0.2474,0.2829 -0.5773,0.4817 -0.9435,0.5685 z"
       fill="#ff681c"
       id="path339" />
    <path
       d="m 88.3697,81.6749 h -0.2739 c -0.066,-0.0209 -0.1369,-0.0209 -0.2029,0 -0.0301,0.0286 -0.0538,0.0632 -0.0696,0.1015 -0.0157,0.0384 -0.0231,0.0796 -0.0217,0.1211 -0.0863,0.9827 -0.0863,1.971 0,2.9538 -0.8704,-0.2768 -1.6183,-0.8447 -2.1173,-1.6077 -0.4991,-0.763 -0.7187,-1.6744 -0.6217,-2.5803 1.0743,0.4516 2.1929,0.7906 3.3375,1.0116 z"
       fill="#e0a091"
       id="path341" />
    <path
       d="m 83.6614,92.5568 c -0.9927,-2.7907 -4.0661,-4.2505 -6.8647,-3.2606 -2.7986,0.9899 -4.2626,4.0546 -3.2699,6.8452 l 4.8666,13.6806 c 0.9927,2.791 4.0661,4.251 6.8647,3.261 2.7986,-0.99 4.2626,-4.055 3.2699,-6.845 z"
       fill="#ffffff"
       id="path343" />
    <path
       d="m 231.216,92.9641 c -4.352,81.3509 -58.95,102.6149 -58.95,102.6149 -60.614,-36.013 -60.31,-106.3375 -60.31,-106.3375 38.631,-10.399 60.726,-31.6725 61.415,-32.3705 14.406,20.9296 57.845,36.0931 57.845,36.0931 z"
       fill="#68e1fd"
       id="path345" />
    <path
       d="m 231.216,92.6404 c -4.352,81.3516 -58.95,102.6146 -58.95,102.6146 -60.614,-36.012 -60.31,-106.3372 -60.31,-106.3372 38.651,-10.3788 60.746,-31.6219 61.436,-32.33 14.385,20.9396 57.824,36.0526 57.824,36.0526 z"
       fill="url(#paint0_linear_15_165)"
       id="path347"
       style="fill:url(#paint0_linear_15_165)" />
    <path
       d="m 106.437,99.7821 c 0.507,-0.3742 1.015,-0.789 1.441,-1.1936 1.102,-0.9917 2.346,-1.8135 3.692,-2.4379 1.352,-0.6272 2.866,-0.8182 4.332,-0.5463 0.315,0.0607 0.69,0.2529 0.649,0.5766 -0.04,0.3237 -0.223,0.344 -0.416,0.4451 -0.853,0.4717 -1.754,0.8515 -2.688,1.133 -0.385,0.1113 -0.832,0.2529 -1.014,0.6272 0.312,0.0346 0.628,-0.0034 0.923,-0.1113 1.156,-0.2911 2.354,-0.3767 3.54,-0.2529 0.112,0 0.244,0 0.305,0.1416 0.061,0.1416 0,0.3035 -0.183,0.3945 -1.136,0.9003 -2.84,0.8397 -3.926,1.8109 -0.193,0.162 -0.335,0.506 -0.122,0.637 0.089,0.03 0.185,0.03 0.274,0 0.467,0 0.923,-0.192 1.39,-0.273 0.745,-0.146 1.51,-0.167 2.262,-0.061 0.05,0.002 0.099,0.014 0.144,0.035 0.046,0.02 0.086,0.05 0.12,0.087 0.112,0.172 -0.122,0.364 -0.304,0.455 l -3.926,1.71 c 0.54,0.045 1.083,0.045 1.623,0 0.55,-0.031 1.092,0.142 1.522,0.485 0.017,0.009 0.031,0.022 0.042,0.038 0.011,0.016 0.017,0.034 0.018,0.053 0,0.071 0,0.111 -0.111,0.142 -0.628,0.338 -1.318,0.544 -2.029,0.607 -0.422,0.032 -0.84,0.106 -1.248,0.222 -0.247,0.092 -0.488,0.2 -0.72,0.324 -0.755,0.4 -1.571,0.673 -2.414,0.809 -0.848,0.143 -1.719,0.001 -2.476,-0.404 -0.202,-0.128 -0.416,-0.237 -0.639,-0.324 -0.811,-0.223 -1.714,0.617 -2.465,0.222 -0.252,-0.171 -0.455,-0.404 -0.588,-0.677 -0.406,-0.668 -1.766,-2.529 -0.67,-3.146 0.616,-0.24 1.246,-0.443 1.887,-0.607 0.625,-0.238 1.221,-0.547 1.775,-0.9209 z"
       fill="#ffbaa8"
       id="path349" />
    <path
       d="m 89.4552,101.937 13.4318,-1.285 2.171,6.535 c 0,0 -19.6302,7.961 -23.4446,5.746 -3.8144,-2.216 -0.2739,-5.827 -0.2739,-5.827 0,0 0.4463,-5.301 8.1157,-5.169 z"
       fill="#ffffff"
       id="path351" />
    <path
       d="m 224.165,96.9093 c -3.844,71.7007 -51.96,90.4447 -51.96,90.4447 -53.422,-31.743 -53.158,-93.7222 -53.158,-93.7222 34.055,-9.1649 53.523,-27.9196 54.132,-28.4962 12.68,18.4613 50.986,31.7737 50.986,31.7737 z"
       fill="#68e1fd"
       id="path353" />
    <path
       d="M 173.189,65.1255 172.174,187.354 C 118.753,155.611 119.017,93.6318 119.017,93.6318 153.072,84.4669 172.539,65.7122 173.148,65.1356 Z"
       fill="url(#paint1_linear_15_165)"
       id="path355"
       style="fill:url(#paint1_linear_15_165)" />
    <path
       d="m 172.205,126.923 c 5.205,0 9.424,-4.208 9.424,-9.398 0,-5.19 -4.219,-9.397 -9.424,-9.397 -5.205,0 -9.425,4.207 -9.425,9.397 0,5.19 4.22,9.398 9.425,9.398 z"
       fill="#473f47"
       id="path357" />
    <path
       d="m 166.534,140.963 h 10.155 l -2.881,-15.052 h -3.703 z"
       fill="#473f47"
       id="path359" />
    <path
       opacity="0.18"
       d="m 121.614,114.086 h 12.122 v -8.771 h 9.607"
       stroke="#ffffff"
       stroke-width="1.22794"
       stroke-miterlimit="10"
       id="path361" />
    <path
       opacity="0.18"
       d="m 123.987,123.483 h 15.785 v 19.14 h 9.881"
       stroke="#ffffff"
       stroke-width="1.22794"
       stroke-miterlimit="10"
       id="path363" />
    <path
       opacity="0.18"
       d="M 223.161,108.128 H 203.176 V 96.8283 h -17.844"
       stroke="#ffffff"
       stroke-width="1.22794"
       stroke-miterlimit="10"
       id="path365" />
    <path
       opacity="0.18"
       d="m 219.438,126.923 h -19.467 v 19.898 h -13.726"
       stroke="#ffffff"
       stroke-width="1.22794"
       stroke-miterlimit="10"
       id="path367" />
    <path
       opacity="0.18"
       d="m 143.343,161.944 h 16.333 v -7.648 h 9.881"
       stroke="#ffffff"
       stroke-width="1.22794"
       stroke-miterlimit="10"
       id="path369" />
    <path
       d="m 131.454,85.3874 c 0.194,0.072 0.404,0.0883 0.606,0.0472 0.203,-0.0411 0.39,-0.1381 0.54,-0.2799 0.447,-0.5159 0.091,-1.2948 -0.274,-1.8714 0.345,-0.263 0.842,0.0708 1.106,0.4249 0.264,0.354 0.578,0.7789 1.014,0.7283 0.437,-0.0506 0.68,-0.6474 0.569,-1.0925 -0.176,-0.4336 -0.397,-0.8473 -0.66,-1.2341 0.193,-0.263 0.619,0 0.791,0.2529 0.173,0.2529 0.406,0.6373 0.721,0.5664 0.123,-0.0555 0.223,-0.1533 0.281,-0.2757 0.058,-0.1225 0.069,-0.2615 0.033,-0.3919 -0.077,-0.2619 -0.134,-0.5289 -0.172,-0.7991 0.537,-0.172 1.156,0.3844 1.653,0.1214 0.087,-0.0648 0.16,-0.1471 0.213,-0.2417 0.053,-0.0946 0.085,-0.1993 0.095,-0.3072 0.009,-0.108 -0.004,-0.2167 -0.039,-0.3191 -0.036,-0.1024 -0.093,-0.1962 -0.167,-0.2751 -0.321,-0.3094 -0.734,-0.5049 -1.177,-0.5564 -1.095,-0.2326 -2.236,-0.0975 -3.246,0.3844 -1.167,0.4653 -2.384,0.7081 -3.52,1.2948 -1.05,0.4437 -1.973,1.1386 -2.689,2.0232 -0.056,0.098 -0.074,0.2134 -0.049,0.3237 0.024,0.1103 0.089,0.2077 0.181,0.2731 0.151,0.0509 0.315,0.0509 0.467,0 0.806,-0.151 1.641,-0.0112 2.353,0.3945 0.384,0.2677 0.783,0.511 1.197,0.7284 z"
       fill="#ffbaa8"
       id="path371" />
    <path
       d="M 282.771,91.6895 C 271.733,68.2209 220.97,50.4374 160.204,50.4374 c -68.8214,0 -124.779,22.8009 -124.779,50.8316 0,28.031 55.9881,50.832 124.779,50.832 46.908,0 87.852,-10.591 109.176,-26.21 3.068,-2.209 5.885,-4.746 8.4,-7.567 3.309,-3.564 5.639,-7.919 6.766,-12.644 0.307,-1.451 0.464,-2.929 0.467,-4.411 -0.026,-3.3193 -0.792,-6.5916 -2.242,-9.5795 z m -5.975,26.5435 c -2.188,2.395 -4.6,4.577 -7.203,6.515 -20.878,15.76 -62.085,26.503 -109.41,26.503 -68.3439,0 -123.9566,-22.416 -123.9566,-49.982 0,-27.5653 55.6127,-49.992 123.9776,-49.992 59.995,0 110.17,17.2777 121.542,40.1394 1.563,3.0521 2.39,6.4259 2.415,9.8526 0.003,1.198 -0.105,2.393 -0.325,3.571 -0.832,4.674 -3.246,9.165 -7.04,13.393 z"
       fill="#ffffff"
       id="path373" />
    <path
       opacity="0.18"
       d="m 286.565,98.9628 c -0.076,-0.8188 -0.198,-1.6327 -0.365,-2.4379 -0.308,-1.435 -0.742,-2.8399 -1.299,-4.1981 l -0.182,-0.0607 c -0.64,-0.2023 -1.299,-0.3844 -1.948,-0.5766 C 271.733,68.2209 220.97,50.4374 160.204,50.4374 c -68.8214,0 -124.779,22.8009 -124.779,50.8316 0,28.031 55.9881,50.832 124.779,50.832 46.908,0 87.852,-10.591 109.176,-26.21 -0.02,0.304 0.02,0.609 0.12,0.898 0.099,0.288 0.255,0.554 0.458,0.781 3.859,-2.712 7.33,-5.934 10.317,-9.579 2.418,-2.942 4.25,-6.317 5.397,-9.944 0.673,-2.193 1.015,-4.474 1.015,-6.768 0,-0.773 -0.041,-1.5467 -0.122,-2.3162 z M 160.204,151.251 c -68.3446,0 -123.9573,-22.416 -123.9573,-49.982 0,-27.5653 55.5924,-49.992 123.9573,-49.992 59.995,0 110.17,17.2777 121.542,40.1394 -0.591,-0.1148 -1.205,-0.0105 -1.724,0.2934 1.573,2.9441 2.412,6.2232 2.444,9.5592 -0.001,0.771 -0.048,1.541 -0.142,2.307 -0.598,4.875 -3.043,9.65 -7.304,14.162 -1.595,1.696 -3.318,3.268 -5.153,4.704 0.123,0.433 0.123,0.891 0,1.325 -0.091,0.323 -0.193,0.647 -0.284,1.011 -20.868,15.73 -62.075,26.473 -109.379,26.473 z"
       fill="#68e1fd"
       id="path375" />
    <path
       opacity="0.18"
       d="m 281.726,91.4164 c -0.592,-0.1148 -1.205,-0.0105 -1.725,0.2934 -4.666,-9.0132 -15.937,-17.3891 -32.848,-24.2071 -23.241,-9.3672 -54.132,-14.5263 -86.949,-14.5263 -32.818,0 -63.7389,5.1591 -86.9802,14.5263 -22.7746,9.175 -35.3032,21.1521 -35.3032,33.7663 0,12.615 12.5286,24.582 35.2829,33.757 23.2413,9.377 54.1315,14.536 86.9795,14.536 32.849,0 63.729,-5.159 86.97,-14.536 9.343,-3.764 16.952,-7.992 22.694,-12.574 0.122,0.433 0.122,0.892 0,1.325 -0.092,0.323 -0.193,0.647 -0.284,1.011 -20.878,15.761 -62.085,26.504 -109.41,26.504 -68.3443,0 -123.957,-22.417 -123.957,-49.982 0,-27.5659 55.6432,-50.033 124.008,-50.033 59.975,0 110.15,17.2777 121.522,40.1394 z"
       fill="#68e1fd"
       id="path377" />
    <path
       opacity="0.18"
       d="m 284.901,92.3268 -0.182,-0.0607 c -0.64,-0.2023 -1.299,-0.3844 -1.948,-0.5766 C 271.733,68.2209 220.97,50.4374 160.204,50.4374 c -68.8214,0 -124.779,22.801 -124.779,50.8316 0,28.031 55.988,50.832 124.779,50.832 46.908,0 87.852,-10.591 109.176,-26.21 -0.02,0.304 0.02,0.609 0.12,0.898 0.099,0.288 0.255,0.554 0.458,0.781 -6.503,4.54 -13.521,8.299 -20.908,11.198 -23.809,9.691 -55.369,15.022 -88.846,15.022 -33.478,0 -65.0577,-5.331 -88.8468,-15.022 -24.2862,-9.893 -37.6568,-23.215 -37.6568,-37.499 0,-14.2833 13.3503,-27.6058 37.6365,-37.4889 23.7891,-9.701 55.3891,-15.0321 88.8671,-15.0321 33.477,0 65.057,5.3311 88.846,15.0321 19.113,7.7892 31.469,17.7026 35.851,28.5467 z"
       fill="#68e1fd"
       id="path379" />
    <path
       opacity="0.35"
       d="m 154.695,201.567 c 53.915,0 97.622,-7.183 97.622,-16.043 0,-8.861 -43.707,-16.044 -97.622,-16.044 -53.915,0 -97.6215,7.183 -97.6215,16.044 0,8.86 43.7065,16.043 97.6215,16.043 z"
       fill="#68e1fd"
       id="path381" />
    <path
       d="M 133.219,65.6414 H 109.308 V 36.2045 h 20.614 l 3.297,4.198 z"
       fill="#ffffff"
       id="path383" />
    <path
       d="M 131.099,67.3813 H 107.188 V 37.9444 h 20.614 l 3.297,4.198 z"
       fill="#ffffff"
       id="path385" />
    <path
       d="M 130.896,67.5836 H 106.985 V 38.1467 h 20.614 l 3.297,4.198 z"
       fill="url(#paint2_linear_15_165)"
       id="path387"
       style="fill:url(#paint2_linear_15_165)" />
    <path
       d="m 128.796,70.0215 h -23.911 v -29.447 h 20.614 l 3.297,4.198 z"
       fill="#ffffff"
       id="path389" />
    <path
       d="m 125.499,40.5745 v 4.1576 h 3.297 z"
       fill="url(#paint3_linear_15_165)"
       id="path391"
       style="fill:url(#paint3_linear_15_165)" />
    <path
       d="m 127.599,38.1467 v 4.279 h 3.297 z"
       fill="url(#paint4_linear_15_165)"
       id="path393"
       style="fill:url(#paint4_linear_15_165)" />
    <path
       d="m 129.922,36.2045 v 4.2789 h 3.297 z"
       fill="url(#paint5_linear_15_165)"
       id="path395"
       style="fill:url(#paint5_linear_15_165)" />
    <path
       d="m 284.911,127.621 c -0.317,-0.081 -0.613,-0.226 -0.872,-0.426 -0.258,-0.2 -0.472,-0.451 -0.629,-0.738 -0.244,-0.414 -0.467,-0.849 -0.71,-1.264 -0.209,-0.415 -0.545,-0.753 -0.959,-0.965 -0.413,-0.213 -0.884,-0.289 -1.344,-0.219 -0.47,0.031 -0.918,0.207 -1.282,0.505 -0.364,0.297 -0.625,0.701 -0.747,1.154 -0.152,0.496 -0.274,1.012 -0.446,1.487 -0.194,0.613 -0.622,1.125 -1.192,1.426 -0.569,0.301 -1.234,0.367 -1.852,0.183 l -2.789,-0.82 c -0.32,-0.086 -0.619,-0.235 -0.88,-0.438 -0.261,-0.204 -0.478,-0.457 -0.639,-0.746 -0.161,-0.288 -0.262,-0.606 -0.297,-0.935 -0.036,-0.328 -0.005,-0.66 0.091,-0.976 0.132,-0.506 0.304,-1.012 0.426,-1.497 0.13,-0.435 0.121,-0.9 -0.027,-1.33 -0.147,-0.429 -0.425,-0.803 -0.795,-1.068 -0.336,-0.294 -0.757,-0.476 -1.203,-0.52 -0.446,-0.043 -0.894,0.054 -1.282,0.278 -0.436,0.212 -0.852,0.465 -1.278,0.688 -0.293,0.163 -0.616,0.266 -0.95,0.303 -0.333,0.038 -0.671,0.009 -0.993,-0.086 -0.322,-0.094 -0.622,-0.251 -0.882,-0.462 -0.261,-0.211 -0.476,-0.472 -0.635,-0.767 -0.487,-0.88 -1.014,-1.75 -1.45,-2.63 -0.172,-0.289 -0.283,-0.609 -0.325,-0.942 -0.041,-0.334 -0.014,-0.672 0.081,-0.994 0.096,-0.321 0.256,-0.62 0.473,-0.877 0.216,-0.257 0.484,-0.467 0.785,-0.616 0.406,-0.233 0.832,-0.435 1.228,-0.668 0.399,-0.202 0.727,-0.523 0.937,-0.917 0.211,-0.395 0.294,-0.845 0.239,-1.288 -0.017,-0.459 -0.177,-0.901 -0.459,-1.264 -0.283,-0.363 -0.672,-0.629 -1.113,-0.759 -0.487,-0.162 -1.014,-0.284 -1.491,-0.446 -0.334,-0.087 -0.645,-0.243 -0.914,-0.457 -0.27,-0.215 -0.491,-0.483 -0.651,-0.788 -0.159,-0.304 -0.253,-0.639 -0.276,-0.982 -0.022,-0.343 0.028,-0.687 0.147,-1.01 0.253,-0.88 0.507,-1.76 0.771,-2.64 0.16,-0.613 0.554,-1.138 1.098,-1.465 0.544,-0.327 1.195,-0.429 1.813,-0.285 0.528,0.101 1.015,0.273 1.552,0.415 0.454,0.154 0.944,0.164 1.404,0.029 0.46,-0.135 0.866,-0.409 1.164,-0.783 0.298,-0.375 0.472,-0.832 0.499,-1.3088 0.027,-0.4771 -0.094,-0.9509 -0.348,-1.3564 -0.223,-0.3945 -0.446,-0.789 -0.649,-1.1835 -0.154,-0.2816 -0.249,-0.5908 -0.281,-0.9096 -0.032,-0.3187 0.001,-0.6406 0.095,-0.9468 0.095,-0.3062 0.249,-0.5905 0.456,-0.8363 0.206,-0.2457 0.459,-0.448 0.744,-0.595 0.944,-0.5361 1.897,-1.0115 2.871,-1.5376 0.577,-0.2825 1.24,-0.3352 1.855,-0.1472 0.614,0.1879 1.134,0.6023 1.452,1.1588 0.254,0.435 0.477,0.8801 0.731,1.3151 0.209,0.3947 0.536,0.7147 0.936,0.9159 0.4,0.2011 0.853,0.2735 1.295,0.2069 0.456,-0.0277 0.892,-0.1967 1.246,-0.4832 0.355,-0.2866 0.611,-0.6764 0.733,-1.1151 0.152,-0.4552 0.274,-0.9306 0.416,-1.3858 0.087,-0.3373 0.243,-0.6527 0.459,-0.9264 0.216,-0.2737 0.486,-0.4995 0.795,-0.6632 0.308,-0.1636 0.647,-0.2615 0.995,-0.2874 0.348,-0.0259 0.698,0.0208 1.027,0.1371 l 2.597,0.7586 c 0.331,0.0814 0.641,0.2292 0.913,0.4343 0.271,0.2051 0.498,0.4632 0.666,0.7586 0.168,0.2954 0.274,0.6218 0.311,0.9594 0.038,0.3375 0.005,0.6791 -0.094,1.0039 -0.122,0.4451 -0.264,0.9003 -0.396,1.3454 -0.157,0.4444 -0.168,0.9274 -0.031,1.3785 0.137,0.4512 0.414,0.8471 0.792,1.1302 0.36,0.3061 0.808,0.4914 1.279,0.5296 0.472,0.0381 0.944,-0.0729 1.349,-0.3172 0.395,-0.2124 0.791,-0.4451 1.186,-0.6474 0.292,-0.1584 0.612,-0.2579 0.943,-0.2928 0.33,-0.0349 0.664,-0.0045 0.982,0.0895 0.319,0.0939 0.616,0.2496 0.874,0.4581 0.258,0.2084 0.472,0.4656 0.63,0.7568 0.508,0.9 1.015,1.811 1.502,2.721 0.16,0.286 0.261,0.601 0.297,0.926 0.035,0.325 0.005,0.655 -0.09,0.968 -0.094,0.313 -0.251,0.605 -0.461,0.856 -0.21,0.252 -0.469,0.459 -0.761,0.609 -0.436,0.242 -0.892,0.455 -1.329,0.708 -0.366,0.19 -0.669,0.483 -0.871,0.842 -0.202,0.359 -0.294,0.77 -0.265,1.181 -0.002,0.438 0.13,0.866 0.378,1.228 0.249,0.361 0.602,0.639 1.012,0.795 0.507,0.202 1.014,0.334 1.583,0.496 0.311,0.069 0.605,0.204 0.861,0.394 0.256,0.19 0.47,0.431 0.626,0.709 0.157,0.277 0.254,0.584 0.284,0.901 0.03,0.318 -0.006,0.637 -0.108,0.939 -0.264,1.012 -0.558,2.023 -0.882,3.035 -0.082,0.318 -0.23,0.615 -0.434,0.873 -0.205,0.257 -0.461,0.468 -0.753,0.62 -0.292,0.152 -0.613,0.24 -0.942,0.26 -0.328,0.02 -0.657,-0.029 -0.965,-0.145 -0.467,-0.131 -0.924,-0.283 -1.4,-0.394 -0.431,-0.116 -0.887,-0.096 -1.307,0.056 -0.419,0.152 -0.781,0.429 -1.037,0.794 -0.286,0.333 -0.46,0.747 -0.498,1.185 -0.038,0.437 0.061,0.875 0.285,1.253 0.234,0.445 0.497,0.88 0.731,1.315 0.16,0.286 0.261,0.602 0.297,0.928 0.036,0.326 0.006,0.656 -0.089,0.97 -0.095,0.314 -0.252,0.606 -0.462,0.859 -0.21,0.253 -0.469,0.46 -0.761,0.611 -0.903,0.506 -1.816,1.012 -2.729,1.487 -0.283,0.162 -0.596,0.265 -0.92,0.303 -0.325,0.039 -0.653,0.011 -0.967,-0.08 z m -13.705,-19.989 c -0.45,1.52 -0.439,3.138 0.033,4.651 0.472,1.513 1.384,2.853 2.619,3.849 1.236,0.997 2.74,1.606 4.322,1.75 1.583,0.144 3.173,-0.183 4.569,-0.94 1.396,-0.757 2.535,-1.91 3.275,-3.313 0.739,-1.402 1.044,-2.992 0.877,-4.568 -0.167,-1.576 -0.799,-3.067 -1.816,-4.284 -1.017,-1.218 -2.373,-2.108 -3.897,-2.557 -1.011,-0.301 -2.073,-0.4 -3.123,-0.29 -1.05,0.109 -2.068,0.424 -2.996,0.927 -0.928,0.503 -1.746,1.184 -2.409,2.003 -0.663,0.82 -1.157,1.762 -1.454,2.772 z"
       fill="#68e1fd"
       id="path397" />
    <g
       opacity="0.27"
       id="g401">
      <path
         opacity="0.27"
         d="m 284.911,127.621 c -0.317,-0.081 -0.613,-0.226 -0.872,-0.426 -0.258,-0.2 -0.472,-0.451 -0.629,-0.738 -0.244,-0.414 -0.467,-0.849 -0.71,-1.264 -0.209,-0.415 -0.545,-0.753 -0.959,-0.965 -0.413,-0.213 -0.884,-0.289 -1.344,-0.219 -0.47,0.031 -0.918,0.207 -1.282,0.505 -0.364,0.297 -0.625,0.701 -0.747,1.154 -0.152,0.496 -0.274,1.012 -0.446,1.487 -0.194,0.613 -0.622,1.125 -1.192,1.426 -0.569,0.301 -1.234,0.367 -1.852,0.183 l -2.789,-0.82 c -0.32,-0.086 -0.619,-0.235 -0.88,-0.438 -0.261,-0.204 -0.478,-0.457 -0.639,-0.746 -0.161,-0.288 -0.262,-0.606 -0.297,-0.935 -0.036,-0.328 -0.005,-0.66 0.091,-0.976 0.132,-0.506 0.304,-1.012 0.426,-1.497 0.13,-0.435 0.121,-0.9 -0.027,-1.33 -0.147,-0.429 -0.425,-0.803 -0.795,-1.068 -0.336,-0.294 -0.757,-0.476 -1.203,-0.52 -0.446,-0.043 -0.894,0.054 -1.282,0.278 -0.436,0.212 -0.852,0.465 -1.278,0.688 -0.293,0.163 -0.616,0.266 -0.95,0.303 -0.333,0.038 -0.671,0.009 -0.993,-0.086 -0.322,-0.094 -0.622,-0.251 -0.882,-0.462 -0.261,-0.211 -0.476,-0.472 -0.635,-0.767 -0.487,-0.88 -1.014,-1.75 -1.45,-2.63 -0.172,-0.289 -0.283,-0.609 -0.325,-0.942 -0.041,-0.334 -0.014,-0.672 0.081,-0.994 0.096,-0.321 0.256,-0.62 0.473,-0.877 0.216,-0.257 0.484,-0.467 0.785,-0.616 0.406,-0.233 0.832,-0.435 1.228,-0.668 0.399,-0.202 0.727,-0.523 0.937,-0.917 0.211,-0.395 0.294,-0.845 0.239,-1.288 -0.017,-0.459 -0.177,-0.901 -0.459,-1.264 -0.283,-0.363 -0.672,-0.629 -1.113,-0.759 -0.487,-0.162 -1.014,-0.284 -1.491,-0.446 -0.334,-0.087 -0.645,-0.243 -0.914,-0.457 -0.27,-0.215 -0.491,-0.483 -0.651,-0.788 -0.159,-0.304 -0.253,-0.639 -0.276,-0.982 -0.022,-0.343 0.028,-0.687 0.147,-1.01 0.253,-0.88 0.507,-1.76 0.771,-2.64 0.16,-0.613 0.554,-1.138 1.098,-1.465 0.544,-0.327 1.195,-0.429 1.813,-0.285 0.528,0.101 1.015,0.273 1.552,0.415 0.454,0.154 0.944,0.164 1.404,0.029 0.46,-0.135 0.866,-0.409 1.164,-0.783 0.298,-0.375 0.472,-0.832 0.499,-1.3088 0.027,-0.4771 -0.094,-0.9509 -0.348,-1.3564 -0.223,-0.3945 -0.446,-0.789 -0.649,-1.1835 -0.154,-0.2816 -0.249,-0.5908 -0.281,-0.9096 -0.032,-0.3187 0.001,-0.6406 0.095,-0.9468 0.095,-0.3062 0.249,-0.5905 0.456,-0.8363 0.206,-0.2457 0.459,-0.448 0.744,-0.595 0.944,-0.5361 1.897,-1.0115 2.871,-1.5376 0.577,-0.2825 1.24,-0.3352 1.855,-0.1472 0.614,0.1879 1.134,0.6023 1.452,1.1588 0.254,0.435 0.477,0.8801 0.731,1.3151 0.209,0.3947 0.536,0.7147 0.936,0.9159 0.4,0.2011 0.853,0.2735 1.295,0.2069 0.456,-0.0277 0.892,-0.1967 1.246,-0.4832 0.355,-0.2866 0.611,-0.6764 0.733,-1.1151 0.152,-0.4552 0.274,-0.9306 0.416,-1.3858 0.087,-0.3373 0.243,-0.6527 0.459,-0.9264 0.216,-0.2737 0.486,-0.4995 0.795,-0.6632 0.308,-0.1636 0.647,-0.2615 0.995,-0.2874 0.348,-0.0259 0.698,0.0208 1.027,0.1371 l 2.597,0.7586 c 0.331,0.0814 0.641,0.2292 0.913,0.4343 0.271,0.2051 0.498,0.4632 0.666,0.7586 0.168,0.2954 0.274,0.6218 0.311,0.9594 0.038,0.3375 0.005,0.6791 -0.094,1.0039 -0.122,0.4451 -0.264,0.9003 -0.396,1.3454 -0.157,0.4444 -0.168,0.9274 -0.031,1.3785 0.137,0.4512 0.414,0.8471 0.792,1.1302 0.36,0.3061 0.808,0.4914 1.279,0.5296 0.472,0.0381 0.944,-0.0729 1.349,-0.3172 0.395,-0.2124 0.791,-0.4451 1.186,-0.6474 0.292,-0.1584 0.612,-0.2579 0.943,-0.2928 0.33,-0.0349 0.664,-0.0045 0.982,0.0895 0.319,0.0939 0.616,0.2496 0.874,0.4581 0.258,0.2084 0.472,0.4656 0.63,0.7568 0.508,0.9 1.015,1.811 1.502,2.721 0.16,0.286 0.261,0.601 0.297,0.926 0.035,0.325 0.005,0.655 -0.09,0.968 -0.094,0.313 -0.251,0.605 -0.461,0.856 -0.21,0.252 -0.469,0.459 -0.761,0.609 -0.436,0.242 -0.892,0.455 -1.329,0.708 -0.366,0.19 -0.669,0.483 -0.871,0.842 -0.202,0.359 -0.294,0.77 -0.265,1.181 -0.002,0.438 0.13,0.866 0.378,1.228 0.249,0.361 0.602,0.639 1.012,0.795 0.507,0.202 1.014,0.334 1.583,0.496 0.311,0.069 0.605,0.204 0.861,0.394 0.256,0.19 0.47,0.431 0.626,0.709 0.157,0.277 0.254,0.584 0.284,0.901 0.03,0.318 -0.006,0.637 -0.108,0.939 -0.264,1.012 -0.558,2.023 -0.882,3.035 -0.082,0.318 -0.23,0.615 -0.434,0.873 -0.205,0.257 -0.461,0.468 -0.753,0.62 -0.292,0.152 -0.613,0.24 -0.942,0.26 -0.328,0.02 -0.657,-0.029 -0.965,-0.145 -0.467,-0.131 -0.924,-0.283 -1.4,-0.394 -0.431,-0.116 -0.887,-0.096 -1.307,0.056 -0.419,0.152 -0.781,0.429 -1.037,0.794 -0.286,0.333 -0.46,0.747 -0.498,1.185 -0.038,0.437 0.061,0.875 0.285,1.253 0.234,0.445 0.497,0.88 0.731,1.315 0.16,0.286 0.261,0.602 0.297,0.928 0.036,0.326 0.006,0.656 -0.089,0.97 -0.095,0.314 -0.252,0.606 -0.462,0.859 -0.21,0.253 -0.469,0.46 -0.761,0.611 -0.903,0.506 -1.816,1.012 -2.729,1.487 -0.283,0.162 -0.596,0.265 -0.92,0.303 -0.325,0.039 -0.653,0.011 -0.967,-0.08 z m -13.705,-19.989 c -0.45,1.52 -0.439,3.138 0.033,4.651 0.472,1.513 1.384,2.853 2.619,3.849 1.236,0.997 2.74,1.606 4.322,1.75 1.583,0.144 3.173,-0.183 4.569,-0.94 1.396,-0.757 2.535,-1.91 3.275,-3.313 0.739,-1.402 1.044,-2.992 0.877,-4.568 -0.167,-1.576 -0.799,-3.067 -1.816,-4.284 -1.017,-1.218 -2.373,-2.108 -3.897,-2.557 -1.011,-0.301 -2.073,-0.4 -3.123,-0.29 -1.05,0.109 -2.068,0.424 -2.996,0.927 -0.928,0.503 -1.746,1.184 -2.409,2.003 -0.663,0.82 -1.157,1.762 -1.454,2.772 z"
         fill="#020202"
         id="path399" />
    </g>
    <path
       d="m 295.127,111.203 c -0.518,-0.162 -1.065,-0.283 -1.573,-0.496 -0.41,-0.156 -0.763,-0.434 -1.011,-0.795 -0.249,-0.361 -0.38,-0.79 -0.378,-1.228 -0.027,-0.412 0.067,-0.822 0.271,-1.182 0.203,-0.359 0.507,-0.651 0.875,-0.841 0.426,-0.243 0.883,-0.465 1.319,-0.708 0.292,-0.15 0.55,-0.357 0.76,-0.609 0.21,-0.251 0.367,-0.542 0.462,-0.856 0.095,-0.313 0.125,-0.642 0.089,-0.968 -0.035,-0.325 -0.136,-0.64 -0.297,-0.926 -0.487,-0.91 -1.014,-1.821 -1.501,-2.7107 -0.158,-0.2912 -0.373,-0.5483 -0.631,-0.7568 -0.258,-0.2085 -0.555,-0.3641 -0.873,-0.4581 -0.319,-0.094 -0.653,-0.1244 -0.983,-0.0895 -0.33,0.0349 -0.65,0.1344 -0.942,0.2928 l -1.187,0.6474 c -0.404,0.2457 -0.875,0.3584 -1.346,0.3221 -0.472,-0.0363 -0.92,-0.2198 -1.281,-0.5244 -0.112,-0.1011 -0.213,-0.2023 -0.315,-0.3136 -0.267,-0.2932 -0.449,-0.653 -0.528,-1.0412 -0.078,-0.3883 -0.05,-0.7905 0.082,-1.164 0,-0.0708 0.05,-0.1619 0.081,-0.2327 0.101,-0.3743 0.213,-0.7384 0.304,-1.1127 0.195,-0.6211 0.136,-1.2938 -0.165,-1.8716 -0.3,-0.5778 -0.817,-1.014 -1.438,-1.2137 l -0.182,-0.0607 C 284.1,92.1043 283.44,91.9222 282.791,91.73 l -0.659,-0.1922 -0.386,-0.081 c -0.591,-0.1148 -1.205,-0.0104 -1.724,0.2934 -0.549,0.3385 -0.95,0.8688 -1.127,1.487 -0.152,0.4654 -0.273,0.9307 -0.415,1.396 -0.129,0.4431 -0.395,0.8347 -0.759,1.1196 -0.364,0.2849 -0.808,0.4488 -1.27,0.4686 -0.442,0.0659 -0.893,-0.0056 -1.293,-0.2047 -0.399,-0.1991 -0.727,-0.5162 -0.939,-0.9081 -0.264,-0.4349 -0.477,-0.88 -0.731,-1.3251 -0.315,-0.5576 -0.832,-0.9734 -1.446,-1.1616 -0.613,-0.1882 -1.276,-0.1345 -1.851,0.15 -1.014,0.4754 -1.937,1.0116 -2.881,1.5275 -0.285,0.1469 -0.538,0.3492 -0.744,0.595 -0.206,0.2458 -0.361,0.5301 -0.456,0.8362 -0.094,0.3062 -0.126,0.6281 -0.095,0.9469 0.032,0.3187 0.128,0.628 0.281,0.9095 0.203,0.4046 0.436,0.789 0.649,1.1836 0.264,0.4031 0.391,0.8797 0.364,1.3604 -0.028,0.48 -0.208,0.939 -0.516,1.31 -0.293,0.38 -0.699,0.658 -1.16,0.794 -0.461,0.136 -0.953,0.124 -1.407,-0.035 -0.517,-0.152 -1.014,-0.324 -1.552,-0.425 -0.618,-0.145 -1.269,-0.043 -1.812,0.284 -0.544,0.327 -0.939,0.853 -1.099,1.466 -0.254,0.88 -0.518,1.76 -0.771,2.65 -0.119,0.323 -0.168,0.667 -0.145,1.01 0.023,0.343 0.118,0.677 0.278,0.981 0.161,0.304 0.384,0.571 0.654,0.784 0.271,0.213 0.583,0.367 0.917,0.452 0.487,0.172 1.015,0.273 1.481,0.445 0.44,0.134 0.827,0.4 1.109,0.763 0.282,0.362 0.444,0.802 0.464,1.26 0.058,0.443 -0.022,0.893 -0.231,1.288 -0.209,0.396 -0.536,0.716 -0.936,0.918 -0.406,0.232 -0.832,0.445 -1.238,0.667 -0.301,0.15 -0.568,0.359 -0.785,0.616 -0.216,0.257 -0.377,0.556 -0.472,0.878 -0.096,0.322 -0.123,0.66 -0.081,0.993 0.041,0.333 0.152,0.654 0.324,0.943 0.477,0.88 0.964,1.76 1.451,2.63 0.16,0.293 0.376,0.552 0.637,0.761 0.261,0.21 0.56,0.366 0.882,0.46 0.321,0.094 0.658,0.124 0.991,0.088 0.333,-0.036 0.655,-0.137 0.949,-0.298 0.426,-0.232 0.842,-0.475 1.278,-0.698 0.389,-0.221 0.836,-0.316 1.282,-0.273 0.445,0.044 0.865,0.224 1.204,0.516 0.368,0.274 0.647,0.651 0.801,1.082 0.123,0.434 0.123,0.892 0,1.326 -0.091,0.323 -0.193,0.647 -0.284,1.011 l -0.152,0.516 c -0.101,0.397 -0.108,0.811 -0.022,1.211 0.086,0.4 0.264,0.775 0.519,1.096 0.317,0.385 0.746,0.664 1.227,0.799 l 2.79,0.809 c 0.618,0.181 1.282,0.114 1.85,-0.186 0.569,-0.301 0.997,-0.811 1.193,-1.422 0.173,-0.486 0.295,-1.012 0.447,-1.487 0.124,-0.452 0.387,-0.854 0.75,-1.151 0.363,-0.298 0.81,-0.475 1.279,-0.508 0.458,-0.067 0.926,0.011 1.337,0.223 0.412,0.212 0.746,0.548 0.955,0.96 0.244,0.415 0.467,0.85 0.7,1.275 0.326,0.576 0.863,1.005 1.499,1.193 0.636,0.189 1.321,0.124 1.91,-0.182 0.913,-0.495 1.826,-1.011 2.729,-1.487 0.292,-0.15 0.55,-0.356 0.76,-0.608 0.21,-0.252 0.367,-0.543 0.462,-0.856 0.095,-0.314 0.125,-0.643 0.089,-0.968 -0.035,-0.326 -0.136,-0.641 -0.297,-0.926 -0.243,-0.445 -0.507,-0.87 -0.73,-1.315 -0.228,-0.376 -0.332,-0.814 -0.295,-1.252 0.036,-0.438 0.211,-0.853 0.498,-1.186 0.256,-0.364 0.618,-0.642 1.037,-0.796 0.418,-0.153 0.874,-0.176 1.306,-0.064 0.477,0.111 0.934,0.273 1.4,0.405 0.305,0.108 0.63,0.152 0.953,0.129 0.323,-0.023 0.638,-0.113 0.924,-0.265 0.287,-0.151 0.538,-0.36 0.739,-0.614 0.201,-0.253 0.346,-0.546 0.428,-0.859 0.334,-1.011 0.628,-2.023 0.892,-3.035 0.115,-0.3 0.164,-0.621 0.145,-0.942 -0.018,-0.321 -0.105,-0.635 -0.253,-0.92 -0.148,-0.286 -0.356,-0.537 -0.608,-0.737 -0.252,-0.2 -0.544,-0.345 -0.856,-0.425 z m -9.435,1.355 c -0.509,1.694 -1.56,3.174 -2.993,4.215 -1.432,1.041 -3.167,1.586 -4.94,1.551 -0.323,-0.004 -0.645,-0.035 -0.963,-0.091 -0.367,-0.053 -0.73,-0.131 -1.086,-0.232 -0.242,-0.069 -0.479,-0.154 -0.71,-0.253 -1.917,-0.764 -3.464,-2.235 -4.322,-4.107 -0.857,-1.872 -0.958,-4.002 -0.281,-5.946 0.676,-1.945 2.078,-3.554 3.914,-4.495 1.836,-0.94 3.965,-1.139 5.944,-0.555 0.717,0.212 1.4,0.525 2.029,0.931 0.56,0.349 1.069,0.774 1.511,1.264 0.259,0.261 0.496,0.541 0.71,0.84 0.507,0.719 0.894,1.515 1.147,2.357 0.455,1.471 0.469,3.042 0.04,4.521 z"
       fill="#68e1fd"
       id="path403" />
  </g>
</svg>
