<?xml version="1.0" encoding="UTF-8" standalone="no"?>
<svg
   width="255.82713"
   height="287.98859"
   viewBox="0 0 255.82713 287.98859"
   fill="none"
   version="1.1"
   id="svg244"
   sodipodi:docname="welcome.svg"
   inkscape:version="1.2.1 (9c6d41e410, 2022-07-14)"
   xmlns:inkscape="http://www.inkscape.org/namespaces/inkscape"
   xmlns:sodipodi="http://sodipodi.sourceforge.net/DTD/sodipodi-0.dtd"
   xmlns="http://www.w3.org/2000/svg"
   xmlns:svg="http://www.w3.org/2000/svg">
  <sodipodi:namedview
     id="namedview246"
     pagecolor="#ffffff"
     bordercolor="#000000"
     borderopacity="0.25"
     inkscape:showpageshadow="2"
     inkscape:pageopacity="0.0"
     inkscape:pagecheckerboard="0"
     inkscape:deskcolor="#d1d1d1"
     showgrid="false"
     inkscape:zoom="2.9959677"
     inkscape:cx="152.03769"
     inkscape:cy="124"
     inkscape:window-width="1920"
     inkscape:window-height="1012"
     inkscape:window-x="0"
     inkscape:window-y="32"
     inkscape:window-maximized="1"
     inkscape:current-layer="svg244" />
  <defs
     id="defs242">
    <linearGradient
       id="paint0_linear_15_419"
       x1="210.28101"
       y1="86.688698"
       x2="240.118"
       y2="86.230797"
       gradientUnits="userSpaceOnUse">
      <stop
         offset="0.01"
         id="stop2158" />
      <stop
         offset="0.13"
         stop-opacity="0.69"
         id="stop2160" />
      <stop
         offset="1"
         stop-opacity="0"
         id="stop2162" />
    </linearGradient>
    <linearGradient
       id="paint1_linear_15_419"
       x1="55958"
       y1="8494.9102"
       x2="27751.5"
       y2="51947.898"
       gradientUnits="userSpaceOnUse">
      <stop
         offset="0.01"
         id="stop2165" />
      <stop
         offset="0.13"
         stop-opacity="0.69"
         id="stop2167" />
      <stop
         offset="1"
         stop-opacity="0"
         id="stop2169" />
    </linearGradient>
    <linearGradient
       id="paint2_linear_15_419"
       x1="15329.7"
       y1="16960.699"
       x2="8666.1504"
       y2="21286.4"
       gradientUnits="userSpaceOnUse">
      <stop
         offset="0.01"
         id="stop2172" />
      <stop
         offset="0.13"
         stop-opacity="0.69"
         id="stop2174" />
      <stop
         offset="1"
         stop-opacity="0"
         id="stop2176" />
    </linearGradient>
    <linearGradient
       id="paint3_linear_15_419"
       x1="3578.74"
       y1="7010.3198"
       x2="6603.0098"
       y2="8084.3599"
       gradientUnits="userSpaceOnUse">
      <stop
         offset="0.01"
         id="stop2179" />
      <stop
         offset="0.13"
         stop-opacity="0.69"
         id="stop2181" />
      <stop
         offset="1"
         stop-opacity="0"
         id="stop2183" />
    </linearGradient>
    <linearGradient
       id="paint4_linear_15_419"
       x1="15733.6"
       y1="20017.5"
       x2="22198.801"
       y2="20017.5"
       gradientUnits="userSpaceOnUse">
      <stop
         offset="0.01"
         id="stop2186" />
      <stop
         offset="0.13"
         stop-opacity="0.69"
         id="stop2188" />
      <stop
         offset="1"
         stop-opacity="0"
         id="stop2190" />
    </linearGradient>
    <linearGradient
       id="paint5_linear_15_419"
       x1="7548.8701"
       y1="7115.6201"
       x2="6946.7402"
       y2="6945.04"
       gradientUnits="userSpaceOnUse">
      <stop
         offset="0.01"
         id="stop2193" />
      <stop
         offset="0.13"
         stop-opacity="0.69"
         id="stop2195" />
      <stop
         offset="1"
         stop-opacity="0"
         id="stop2197" />
    </linearGradient>
    <linearGradient
       id="paint6_linear_15_419"
       x1="6102.3398"
       y1="10107.6"
       x2="6627.2598"
       y2="10107.6"
       gradientUnits="userSpaceOnUse">
      <stop
         offset="0.01"
         id="stop2200" />
      <stop
         offset="0.13"
         stop-opacity="0.69"
         id="stop2202" />
      <stop
         offset="1"
         stop-opacity="0"
         id="stop2204" />
    </linearGradient>
    <linearGradient
       id="paint7_linear_15_419"
       x1="1151.66"
       y1="1231.59"
       x2="1355.91"
       y2="1286.5"
       gradientUnits="userSpaceOnUse">
      <stop
         offset="0.01"
         id="stop2207" />
      <stop
         offset="0.13"
         stop-opacity="0.69"
         id="stop2209" />
      <stop
         offset="1"
         stop-opacity="0"
         id="stop2211" />
    </linearGradient>
    <linearGradient
       id="paint8_linear_15_419"
       x1="2607.76"
       y1="2756.5901"
       x2="2094.71"
       y2="2812.71"
       gradientUnits="userSpaceOnUse">
      <stop
         offset="0.01"
         id="stop2214" />
      <stop
         offset="0.13"
         stop-opacity="0.69"
         id="stop2216" />
      <stop
         offset="1"
         stop-opacity="0"
         id="stop2218" />
    </linearGradient>
    <linearGradient
       id="paint9_linear_15_419"
       x1="3229.03"
       y1="7970.3999"
       x2="4258.9102"
       y2="7959.8101"
       gradientUnits="userSpaceOnUse">
      <stop
         offset="0.01"
         id="stop2221" />
      <stop
         offset="0.13"
         stop-opacity="0.69"
         id="stop2223" />
      <stop
         offset="1"
         stop-opacity="0"
         id="stop2225" />
    </linearGradient>
    <linearGradient
       id="paint10_linear_15_419"
       x1="16959.4"
       y1="22927.4"
       x2="22246.9"
       y2="21241.5"
       gradientUnits="userSpaceOnUse">
      <stop
         offset="0.01"
         id="stop2228" />
      <stop
         offset="0.13"
         stop-opacity="0.69"
         id="stop2230" />
      <stop
         offset="1"
         stop-opacity="0"
         id="stop2232" />
    </linearGradient>
    <clipPath
       id="clip0_15_419">
      <rect
         width="382"
         height="288"
         fill="#ffffff"
         id="rect2235"
         x="0"
         y="0" />
    </clipPath>
  </defs>
  <g
     clip-path="url(#clip0_15_419)"
     id="g2156"
     transform="translate(-63.093471,-0.01141279)">
    <path
       opacity="0.18"
       d="m 317.358,103.372 c 1.834,7.267 2.057,14.848 0.651,22.21 -1.405,7.362 -4.404,14.327 -8.787,20.407 -6.543,8.909 -15.871,15.571 -21.68,24.952 -12.555,20.254 -5.816,47.912 -17.332,68.777 -9.626,17.454 -29.568,26.028 -48.086,33.388 -14.54,5.774 -29.226,11.585 -44.64,13.912 -15.413,2.327 -31.989,0.851 -45.344,-7.17 C 121.125,273.251 113.033,262.793 105.559,252.35 87.1873,226.656 70.5819,198.679 64.9402,167.596 59.2984,136.513 66.3361,101.648 89.4702,80.1434 100.732,69.671 115.483,62.4493 123.43,49.2788 c 8.339,-13.8179 8.455,-33.0974 21.418,-42.72624 4.784,-3.55627 10.731,-5.20714 16.635,-5.992573 14.212,-1.830007 28.637,0.945753 41.157,7.919803 12.701,7.11981 23.127,18.43591 36.962,22.98851 17.907,5.898 40.888,1.3672 52.79,18.8213 9.56,14.0361 20.72,36.7337 24.966,53.0824 z"
       fill="#68e1fd"
       id="path2092" />
    <path
       d="m 241.165,93.4376 c -0.207,0.4387 -0.49,0.8375 -0.836,1.1782 -2.771,2.9278 -6.358,4.9549 -10.295,5.8182 -1.39,0.32 -2.812,0.481 -4.238,0.48 -0.836,-5.3964 -1.687,-10.7999 -2.341,-16.218 -0.517,-4.2326 -0.902,-8.4579 -1.084,-12.7051 -0.123,-2.6617 -5.889,-11.9415 -4.711,-14.4287 1.302,-2.7345 10.673,6.6253 11.727,8.407 5.853,9.818 7.954,17.4105 11.967,25.8539 0.152,0.5421 0.084,1.1223 -0.189,1.6145 z"
       fill="#68e1fd"
       id="path2094" />
    <path
       d="m 230.979,99.4448 c -0.28,0.3653 -0.597,0.7012 -0.945,1.0032 -1.39,0.321 -2.812,0.482 -4.238,0.48 -0.836,-5.3959 -1.687,-10.7994 -2.341,-16.2174 0.247,-4.2569 0.695,-8.4968 1.345,-12.7197 -0.277,1.7672 1.897,5.6217 2.486,7.3526 l 2.552,7.5416 c 1.33,3.9344 4.173,8.7198 1.141,12.5597 z"
       fill="url(#paint0_linear_15_419)"
       id="path2096"
       style="fill:url(#paint0_linear_15_419)" />
    <path
       d="m 227.846,108.674 c 0.582,3.549 1.323,7.141 3.075,10.283 0.902,1.614 2.247,3.2 4.072,3.484 1.014,0.096 2.037,-0.057 2.98,-0.444 1.955,-0.673 3.798,-1.633 5.468,-2.851 1.596,-1.224 3.1,-2.563 4.5,-4.007 2.083,-1.967 4.011,-4.092 5.765,-6.356 0.807,-1.091 1.542,-2.24 2.421,-3.28 3.636,-4.327 9.452,-6.2691 13.574,-10.1309 1.112,-1.0327 3.366,-5.7598 3.199,-7.2725 -1.512,-0.8727 -4.617,2.6399 -6.289,3.149 -1.672,0.5091 -3.235,1.3382 -4.915,1.8109 -2.01,0.5609 -4.133,0.5884 -6.157,0.08 -0.684,-0.1746 -1.498,-10.9598 -2.182,-10.7125 -0.344,0.1443 -0.651,0.3628 -0.901,0.64 -1.411,1.4545 -2.181,13.8687 -3.352,15.4832 -1.606,2.1818 -3.831,3.8398 -6.034,5.4258 -0.196,0.138 -0.444,0.283 -0.662,0.174 -0.072,-0.053 -0.132,-0.121 -0.177,-0.198 -0.045,-0.078 -0.074,-0.164 -0.084,-0.253 -0.575,-2.131 -1.222,-4.247 -1.927,-6.3342 -0.494,-1.4545 -1.192,-3.0545 -2.654,-3.4908 -1.301,-0.3855 -2.653,0.3491 -3.817,1.0545 -1.497,0.9163 -3.01,1.8181 -4.5,2.7418 -0.829,0.509 -1.832,1.0036 -2.225,1.9417 -0.479,1.127 -0.072,2.684 0.066,3.84 0.218,1.753 0.472,3.491 0.756,5.222 z"
       fill="#f5bcba"
       id="path2098" />
    <path
       d="m 241.114,207.587 c 0,2.226 -0.109,4.415 -0.305,6.589 -1.696,18.609 -10.473,35.855 -24.518,48.176 -14.045,12.32 -32.283,18.774 -50.949,18.027 -18.665,-0.747 -36.33,-8.637 -49.346,-22.04 -13.016,-13.403 -20.3883,-31.296 -20.5932,-49.981 0,-0.247 0,-0.487 0,-0.727 -0.0962,-9.632 1.7173,-19.188 5.3352,-28.115 3.619,-8.927 8.97,-17.047 15.746,-23.893 6.775,-6.845 14.839,-12.279 23.727,-15.987 8.887,-3.709 18.421,-5.618 28.051,-5.618 9.63,0 19.164,1.909 28.052,5.618 8.887,3.708 16.952,9.142 23.727,15.987 6.775,6.846 12.126,14.966 15.745,23.893 3.618,8.927 5.432,18.483 5.335,28.115 z"
       fill="#68e1fd"
       id="path2100" />
    <path
       d="m 241.114,207.587 c 0,2.226 -0.109,4.415 -0.305,6.589 -16.765,11.411 -41.441,18.611 -68.959,18.611 -31.989,0 -60.096,-9.724 -76.4472,-24.465 0,-0.247 0,-0.487 0,-0.727 -0.0962,-9.632 1.7173,-19.188 5.3352,-28.115 3.619,-8.927 8.97,-17.048 15.746,-23.893 6.775,-6.845 14.839,-12.279 23.727,-15.988 8.887,-3.708 18.421,-5.618 28.051,-5.618 9.63,0 19.164,1.91 28.052,5.618 8.887,3.709 16.952,9.143 23.727,15.988 6.775,6.845 12.126,14.966 15.745,23.893 3.618,8.927 5.432,18.483 5.335,28.115 z"
       fill="url(#paint1_linear_15_419)"
       id="path2102"
       style="fill:url(#paint1_linear_15_419)" />
    <path
       d="m 201.666,179.094 c 2.908,1.047 6.07,1.796 8.455,3.781 2.116,1.753 3.402,4.291 4.442,6.829 3.466,8.518 4.717,17.776 3.635,26.909 -0.291,2.429 -0.727,4.93 -0.094,7.272 0.632,2.342 2.791,4.538 5.22,4.247 3.366,-6.69 3.439,-14.501 3.446,-21.992 0,-5.469 0,-11.054 -1.832,-16.21 -1.498,-4.247 -4.144,-8 -6.878,-11.571 -9.968,-13.09 -22.029,-25.301 -37.384,-31.185 -0.637,-0.325 -1.368,-0.415 -2.065,-0.254 -3.162,1.156 -2.646,6.785 -1.417,9.047 1.744,3.124 3.687,6.134 5.816,9.011 4.67,6.463 11.167,11.379 18.656,14.116 z"
       fill="url(#paint2_linear_15_419)"
       id="path2104"
       style="fill:url(#paint2_linear_15_419)" />
    <path
       d="m 172.911,162.658 c 0.044,-0.979 0.17,-1.952 0.379,-2.909 0.111,-0.475 0.352,-0.91 0.694,-1.258 0.342,-0.347 0.774,-0.594 1.247,-0.713 0.399,-0.011 0.797,-0.047 1.192,-0.109 0.807,-0.248 1.149,-1.186 1.381,-1.993 l 2.581,-9.018 c 0.495,-1.745 0.996,-3.578 0.618,-5.345 -0.596,-2.764 -3.133,-4.633 -5.605,-5.986 -1.796,-0.989 -3.817,-1.869 -5.816,-1.498 -3.097,0.575 -4.893,3.775 -6.049,6.706 -1.346,3.14 -2.173,6.478 -2.45,9.883 -0.204,3.934 -0.538,13.571 1.897,17.01 3.374,4.829 9.393,-0.407 9.931,-4.77 z"
       fill="url(#paint3_linear_15_419)"
       id="path2106"
       style="fill:url(#paint3_linear_15_419)" />
    <path
       d="m 212.128,151.276 c 6.594,2.233 13.624,3.171 19.978,6.015 0.205,0.062 0.395,0.165 0.557,0.304 0.163,0.139 0.295,0.31 0.388,0.503 0.056,0.315 0.015,0.639 -0.116,0.931 -5.366,15.964 -8.393,32.621 -8.986,49.453 3.802,0.684 7.688,0.77 11.516,0.255 0.43,-0.027 0.847,-0.16 1.214,-0.386 0.353,-0.309 0.619,-0.705 0.771,-1.149 6.151,-13.813 11.671,-27.885 16.562,-42.217 0.865,-2.538 1.723,-5.193 1.374,-7.854 -0.502,-3.877 -3.417,-6.931 -6.187,-9.687 l -21.586,-21.542 c -0.549,-0.619 -1.223,-1.115 -1.977,-1.454 -0.869,-0.259 -1.786,-0.304 -2.676,-0.131 -8.513,1.054 -20.138,1.382 -35.784,0.727 -2.029,-0.087 7.997,11.469 8.833,13.687 0.669,1.76 2.785,4.029 4.079,5.396 3.242,3.404 7.619,5.651 12.04,7.149 z"
       fill="#525263"
       id="path2108" />
    <path
       d="m 212.128,151.276 c 6.594,2.233 13.624,3.171 19.978,6.015 0.205,0.062 0.395,0.165 0.557,0.304 0.163,0.139 0.295,0.31 0.388,0.503 0.056,0.315 0.015,0.639 -0.116,0.931 -5.366,15.964 -8.393,32.621 -8.986,49.453 3.802,0.684 7.688,0.77 11.516,0.255 0.43,-0.027 0.847,-0.16 1.214,-0.386 0.353,-0.309 0.619,-0.705 0.771,-1.149 6.151,-13.813 11.671,-27.885 16.562,-42.217 0.865,-2.538 1.723,-5.193 1.374,-7.854 -0.502,-3.877 -3.417,-6.931 -6.187,-9.687 l -21.586,-21.542 c -0.549,-0.619 -1.223,-1.115 -1.977,-1.454 -0.869,-0.259 -1.786,-0.304 -2.676,-0.131 -8.513,1.054 -20.138,1.382 -35.784,0.727 -2.029,-0.087 7.997,11.469 8.833,13.687 0.669,1.76 2.785,4.029 4.079,5.396 3.242,3.404 7.619,5.651 12.04,7.149 z"
       fill="url(#paint4_linear_15_419)"
       id="path2110"
       style="fill:url(#paint4_linear_15_419)" />
    <path
       d="m 222.844,218.031 c -0.53,0.824 -0.888,1.747 -1.054,2.713 -0.388,1.69 -0.674,3.402 -0.858,5.127 -0.146,1.338 -0.196,2.792 0.567,3.89 0.763,1.099 2.021,1.499 3.199,1.957 2.965,1.22 5.845,2.637 8.622,4.24 1.876,1.032 3.832,2.101 5.969,2.181 2.138,0.08 4.501,-1.09 4.988,-3.17 0.169,-1.002 0.084,-2.029 -0.247,-2.989 -1.167,-4.173 -3.456,-7.946 -6.616,-10.909 -0.554,-0.541 -1.172,-1.012 -1.84,-1.404 -0.64,-0.331 -1.31,-0.603 -1.999,-0.814 -1.942,-0.711 -3.932,-1.282 -5.954,-1.709 -1.767,-0.284 -3.556,-0.808 -4.777,0.887 z"
       fill="#2e2e3f"
       id="path2112" />
    <path
       d="m 222.844,218.031 c -0.53,0.824 -0.888,1.747 -1.054,2.713 -0.388,1.69 -0.674,3.402 -0.858,5.127 -0.146,1.338 -0.196,2.792 0.567,3.89 0.763,1.099 2.021,1.499 3.199,1.957 2.965,1.22 5.845,2.637 8.622,4.24 1.876,1.032 3.832,2.101 5.969,2.181 2.138,0.08 4.501,-1.09 4.988,-3.17 0.169,-1.002 0.084,-2.029 -0.247,-2.989 -1.167,-4.173 -3.456,-7.946 -6.616,-10.909 -0.554,-0.541 -1.172,-1.012 -1.84,-1.404 -0.64,-0.331 -1.31,-0.603 -1.999,-0.814 -1.942,-0.711 -3.932,-1.282 -5.954,-1.709 -1.767,-0.284 -3.556,-0.808 -4.777,0.887 z"
       fill="url(#paint5_linear_15_419)"
       id="path2114"
       style="fill:url(#paint5_linear_15_419)" />
    <path
       d="m 225.003,209.027 c -0.551,2.877 -0.838,5.798 -0.858,8.728 0,1.287 0.088,2.712 1.011,3.636 0.874,0.695 1.988,1.014 3.097,0.887 1.337,-0.049 2.657,-0.322 3.904,-0.807 0.277,-0.086 0.527,-0.242 0.727,-0.451 0.148,-0.207 0.249,-0.442 0.298,-0.691 1.11,-4.163 1.698,-8.448 1.752,-12.756 0.071,-0.675 -0.069,-1.356 -0.399,-1.949 -0.691,-0.967 -2.123,-0.924 -3.287,-0.691 -1.489,0.319 -2.948,0.764 -4.362,1.331 -1.338,0.465 -1.614,1.382 -1.883,2.763 z"
       fill="#f5bcba"
       id="path2116" />
    <path
       d="m 239.34,222.7 c 0.526,1.292 0.954,2.622 1.28,3.978 0.225,1.054 0.356,2.182 1.032,3.025 0.858,1.055 2.349,1.324 3.708,1.346 1.121,0.063 2.241,-0.126 3.279,-0.553 0.54,-0.212 0.991,-0.602 1.28,-1.105 0.202,-0.498 0.272,-1.039 0.203,-1.571 -0.106,-3.695 -1.027,-7.321 -2.697,-10.618 -0.958,-1.704 -2.037,-3.338 -3.228,-4.887 -0.377,-0.697 -1.011,-1.219 -1.767,-1.455 -0.389,-0.014 -0.776,0.051 -1.139,0.189 -0.364,0.139 -0.696,0.349 -0.976,0.618 -1.2,0.902 -3.839,2.408 -3.563,4.117 0.349,2.276 1.774,4.756 2.588,6.916 z"
       fill="#f5bcba"
       id="path2118" />
    <path
       d="m 248.152,225.383 c -0.823,0.461 -1.621,0.963 -2.392,1.506 -1.2,0.662 -2.61,0.793 -3.926,1.171 -0.347,0.066 -0.667,0.236 -0.916,0.487 -0.181,0.245 -0.294,0.533 -0.327,0.836 -0.247,1.985 -0.166,3.998 0.24,5.957 0.669,4.237 1.449,8.457 2.341,12.661 0.371,1.731 0.814,3.556 2.072,4.8 1.258,1.244 3.17,1.673 4.958,1.723 1.673,0.097 3.345,-0.215 4.871,-0.909 1.214,-0.65 2.266,-1.565 3.076,-2.678 0.811,-1.114 1.36,-2.395 1.606,-3.75 0.474,-2.725 0.14,-5.529 -0.959,-8.066 -0.747,-1.735 -1.617,-3.414 -2.603,-5.025 -1.309,-2.25 -2.613,-4.499 -3.912,-6.749 -0.988,-1.716 -1.89,-2.916 -4.129,-1.964 z"
       fill="#2e2e3f"
       id="path2120" />
    <path
       d="m 248.152,225.383 c -0.823,0.461 -1.621,0.963 -2.392,1.506 -1.2,0.662 -2.61,0.793 -3.926,1.171 -0.347,0.066 -0.667,0.236 -0.916,0.487 -0.181,0.245 -0.294,0.533 -0.327,0.836 -0.247,1.985 -0.166,3.998 0.24,5.957 0.669,4.237 1.449,8.457 2.341,12.661 0.371,1.731 0.814,3.556 2.072,4.8 1.258,1.244 3.17,1.673 4.958,1.723 1.673,0.097 3.345,-0.215 4.871,-0.909 1.214,-0.65 2.266,-1.565 3.076,-2.678 0.811,-1.114 1.36,-2.395 1.606,-3.75 0.474,-2.725 0.14,-5.529 -0.959,-8.066 -0.747,-1.735 -1.617,-3.414 -2.603,-5.025 -1.309,-2.25 -2.613,-4.499 -3.912,-6.749 -0.988,-1.716 -1.89,-2.916 -4.129,-1.964 z"
       fill="url(#paint6_linear_15_419)"
       id="path2122"
       style="fill:url(#paint6_linear_15_419)" />
    <path
       d="m 160.065,92.2668 c -0.636,1.6011 -1.062,3.2781 -1.265,4.9889 -0.692,4.4293 -1.134,8.8953 -1.323,13.3743 -0.364,8.552 0.189,17.12 -0.051,25.672 -0.247,8.894 -1.294,18.116 1.905,26.414 0.498,1.506 1.339,2.875 2.457,4 0.566,0.553 1.263,0.953 2.026,1.162 0.764,0.209 1.568,0.219 2.336,0.031 0.696,-0.268 1.32,-0.693 1.824,-1.242 0.505,-0.549 0.876,-1.206 1.084,-1.922 0.401,-1.433 0.578,-2.92 0.524,-4.407 l 0.116,-8.131 c 0,-0.167 0,-0.364 0.167,-0.436 0.07,-0.025 0.145,-0.03 0.218,-0.016 0.073,0.014 0.141,0.047 0.197,0.096 0.625,0.54 1.22,1.116 1.781,1.723 0.647,0.524 1.679,0.778 2.254,0.175 0.159,-0.212 0.271,-0.455 0.33,-0.713 0.059,-0.258 0.063,-0.526 0.011,-0.785 -0.349,-3.52 -3.417,-6.058 -5.242,-9.091 -2.631,-4.363 -2.631,-9.862 -1.97,-14.938 0.822,-6.356 2.538,-12.559 4.246,-18.741 l 1.454,-5.229 c 1.098,-3.971 2.181,-8.3053 0.582,-12.1089 -0.642,-1.4608 -1.621,-2.7493 -2.855,-3.7603 -1.234,-1.0111 -2.69,-1.7161 -4.248,-2.0577 -3.039,-0.56 -5.46,3.469 -6.558,5.9417 z"
       fill="#f5bcba"
       id="path2124" />
    <path
       d="m 227.562,125.335 c -0.938,2.524 -6.23,-0.422 -9.255,1.091 -5.772,2.909 -12.359,-0.08 -18.794,0 -6.848,0.124 -11.574,6.872 -18.372,7.731 -0.494,0.102 -1.003,0.102 -1.497,0 -0.938,-0.277 -1.491,-1.215 -1.891,-2.095 -0.586,-1.357 -1.006,-2.781 -1.25,-4.24 -0.843,-4.829 0,-10.007 0.901,-14.916 0.757,-4.16 1.51,-8.322 2.262,-12.487 0.872,-4.8481 1.752,-9.7255 2.639,-14.6321 0.517,-3.2368 1.246,-6.4363 2.181,-9.5779 0.174,-0.5455 0.356,-1.0764 0.552,-1.6 1.691,-4.265 3.732,-8.3831 6.1,-12.3124 1.454,-2.5236 2.908,-5.0908 5.155,-7.0035 2.508,-2.1163 5.743,-3.1708 8.993,-3.6799 2.923,-0.551 5.936,-0.3762 8.775,0.5091 1.622,0.5673 2.232,2.2836 3.519,3.3381 1.631,1.2089 3.087,2.6383 4.326,4.2472 1.258,1.9425 2.157,4.0955 2.654,6.3562 4.558,17.7304 -2.036,36.8572 2.297,54.6382 0.494,2.088 1.454,2.64 0.705,4.633 z"
       fill="#68e1fd"
       id="path2126" />
    <path
       d="m 221.368,63.053 0.567,3.7162 -2.181,-1.2145 v 9.847 l -2.486,-10.9379 2.406,-3.5053 z"
       fill="url(#paint7_linear_15_419)"
       id="path2128"
       style="fill:url(#paint7_linear_15_419)" />
    <path
       d="m 202.901,62.813 1.375,0.7272 2.181,1.8982 -5.817,15.6068 c 0,0 8.448,-13.0033 8.725,-19.6358 0.171,-4.0798 -0.338,-8.1596 -1.505,-12.0725 z"
       fill="url(#paint8_linear_15_419)"
       id="path2130"
       style="fill:url(#paint8_linear_15_419)" />
    <path
       d="m 184.275,107.546 c -0.462,3.573 -0.462,7.191 0,10.764 0.298,2.247 0.778,4.487 0.625,6.741 0.007,0.441 -0.134,0.871 -0.4,1.222 -0.341,0.278 -0.76,0.443 -1.199,0.473 -2.273,0.359 -4.549,0.725 -6.827,1.098 -0.843,-4.829 0,-10.007 0.901,-14.916 0.757,-4.16 1.51,-8.322 2.262,-12.487 0.872,-4.8483 1.752,-9.7257 2.639,-14.6323 0.517,-3.2368 1.245,-6.4363 2.181,-9.5779 0.174,-0.5454 0.356,-1.0763 0.552,-1.6 2.254,-1.2508 5.388,-2.1817 6.783,-0.16 1.455,2.1818 -0.458,7.2726 -1.025,9.4544 -2.064,7.9052 -5.452,15.4614 -6.492,23.6208 z"
       fill="url(#paint9_linear_15_419)"
       id="path2132"
       style="fill:url(#paint9_linear_15_419)" />
    <path
       d="m 236.57,44.4934 c 0.076,0.9044 0.049,1.8144 -0.08,2.7127 -0.073,0.4478 -0.297,0.8574 -0.634,1.1614 -0.336,0.3039 -0.767,0.4842 -1.22,0.5113 -2.268,-0.1673 -3.904,2.0072 -5.707,3.4035 -1.414,1.0603 -3.094,1.7102 -4.853,1.8783 -1.76,0.168 -3.532,-0.1522 -5.122,-0.9256 -0.315,-0.1136 -0.663,-0.1015 -0.97,0.0339 -0.307,0.1353 -0.551,0.3836 -0.68,0.6934 -0.227,0.6415 -0.277,1.3323 -0.145,1.9999 l 0.836,7.9562 c 0.16,1.5345 0.174,3.4108 -1.127,4.2399 -1.302,0.829 -2.843,0.1091 -3.919,-0.8291 -1.691,-1.6272 -2.914,-3.6794 -3.541,-5.9417 -1.421,-4.5835 -1.625,-9.4584 -0.591,-14.1447 1.034,-4.6863 3.27,-9.0226 6.488,-12.5819 1.208,-1.3508 2.624,-2.4998 4.195,-3.4035 1.644,-0.8536 3.409,-1.4496 5.234,-1.7672 1.633,-0.3856 3.322,-0.4792 4.988,-0.2764 2.237,0.4068 4.271,1.5575 5.772,3.2654 1.105,1.2072 2.181,4.8071 3.345,5.3962 -0.866,2.1963 -2.232,4.1381 -2.269,6.618 z"
       fill="#f5bcba"
       id="path2134" />
    <path
       d="m 219.267,13.2651 c -1.066,-0.2494 -2.179,-0.2168 -3.228,0.0946 -2.05,0.7272 -3.199,2.8726 -3.941,4.9162 -0.741,2.0436 -1.352,4.2763 -2.966,5.7235 -1.388,1.2509 -3.359,1.7527 -4.609,3.1345 -1.454,1.6072 -1.592,3.9853 -1.454,6.1453 0,1.6205 0.456,3.2083 1.316,4.5817 0.77,1.0472 1.955,1.7745 2.559,2.909 0.683,1.3018 0.916,3.3163 2.384,3.4035 0.613,-0.0309 1.191,-0.2904 1.622,-0.7272 1.484,-1.2835 2.603,-2.937 3.242,-4.7926 0.357,-1.0327 0.589,-2.1818 1.374,-2.909 0.786,-0.7273 2.385,-0.7709 2.741,0.2618 0.1,0.657 -10e-4,1.329 -0.291,1.9272 -0.189,0.64 -0.109,1.5054 0.517,1.7236 1.177,-1.8182 1.839,-3.9563 3.235,-5.6071 0.792,-0.9285 1.786,-1.6633 2.906,-2.1483 1.12,-0.4849 2.335,-0.7071 3.554,-0.6496 1.219,0.0576 2.409,0.3934 3.478,0.9817 1.069,0.5883 1.989,1.4135 2.69,2.4125 0.727,1.04 1.222,2.2763 2.24,3.0181 0.958,0.5844 2.054,0.9055 3.177,0.9309 2.501,0.2473 5.147,0.3418 7.401,-0.7709 2.254,-1.1127 3.919,-3.8108 3.054,-6.1744 -0.684,-1.8545 -2.632,-2.909 -4.523,-3.5054 -1.89,-0.5963 -3.911,-0.8945 -5.576,-1.9563 -2.261,-1.4545 -3.468,-4.0435 -4.784,-6.3925 -1.316,-2.3491 -3.097,-4.7635 -5.729,-5.3163 -1.074,-0.1672 -2.168,-0.1672 -3.242,0 -1.049,0.2225 -2.122,0.3056 -3.192,0.2473 -1.309,-0.2691 -2.574,-1.1563 -3.955,-1.4618 z"
       fill="#2e2e3f"
       id="path2136" />
    <path
       d="m 219.267,73.0236 c 1.66,8.4132 2.15,17.0157 1.454,25.563 -0.574,7.1124 -1.941,14.1744 -1.89,21.3084 0.107,2.007 0.046,4.018 -0.182,6.015 -0.32,1.978 -13.581,1.221 -15.515,1.2 -3.257,-0.044 0.873,4.363 -1.578,2.239 -3.845,-3.352 -5.561,-8.581 -6.034,-13.657 -0.676,-7.237 0.807,-14.48 2.421,-21.5707 1.12,-4.909 2.312,-9.8325 4.319,-14.4506 2.486,-5.7089 6.419,-12.9742 7.684,-19.0759 0.182,-0.8945 -2.908,-4.1453 -1.577,-4.1017 0.865,0 0.458,1.3454 0.61,2.0145 0.273,1.0188 0.795,1.9536 1.52,2.72 1.014,1.1844 2.388,2.0043 3.911,2.3344 0.982,0.1819 2.102,0.1382 2.814,0.8364 0.865,0.8436 0.727,2.4872 0.974,3.6363 0.356,1.6435 0.735,3.309 1.069,4.9889 z"
       fill="#f2f2f2"
       id="path2138" />
    <path
       d="m 189.829,51.3878 c -3.518,1.6145 -6.543,4.1163 -9.4,6.7344 -2.365,2.1317 -4.599,4.4049 -6.689,6.8071 -1.846,2.1817 -3.533,4.4435 -5.482,6.5016 -2.69,2.829 -6.048,5.5635 -6.579,9.4543 -0.163,2.0289 0.193,4.0658 1.032,5.9199 0.692,1.893 1.714,3.6485 3.017,5.1853 1.655,1.8306 3.837,3.1014 6.246,3.6363 0.754,0.1968 1.542,0.2315 2.312,0.1018 1.083,-0.3084 2.079,-0.8663 2.908,-1.6291 1.895,-1.4346 3.69,-2.9969 5.372,-4.6762 1.716,-1.7818 3.17,-3.8108 4.842,-5.6362 1.455,-1.5709 3.003,-2.989 4.457,-4.5308 1.738,-1.8472 3.286,-3.8617 4.835,-5.8762 2.191,-2.7324 4.2,-5.6065 6.012,-8.6034 1.515,-2.6449 2.717,-5.4563 3.585,-8.378 0.56,-1.9054 1.454,-4.3199 -0.48,-5.6944 -4.108,-2.8945 -11.894,-1.2291 -15.988,0.6836 z"
       fill="#68e1fd"
       id="path2140" />
    <path
       d="m 189.829,51.3878 c -3.518,1.6145 -6.543,4.1163 -9.4,6.7344 -2.365,2.1317 -4.599,4.4049 -6.689,6.8071 -1.846,2.1817 -3.533,4.4435 -5.482,6.5016 -2.69,2.829 -6.048,5.5635 -6.579,9.4543 -0.163,2.0289 0.193,4.0658 1.032,5.9199 0.692,1.893 1.714,3.6485 3.017,5.1853 1.655,1.8306 3.837,3.1014 6.246,3.6363 0.754,0.1968 1.542,0.2315 2.312,0.1018 1.083,-0.3084 2.079,-0.8663 2.908,-1.6291 1.895,-1.4346 3.69,-2.9969 5.372,-4.6762 1.716,-1.7818 3.17,-3.8108 4.842,-5.6362 1.455,-1.5709 3.003,-2.989 4.457,-4.5308 1.738,-1.8472 3.286,-3.8617 4.835,-5.8762 2.191,-2.7324 4.2,-5.6065 6.012,-8.6034 1.515,-2.6449 2.717,-5.4563 3.585,-8.378 0.56,-1.9054 1.454,-4.3199 -0.48,-5.6944 -4.108,-2.8945 -11.894,-1.2291 -15.988,0.6836 z"
       fill="#68e1fd"
       id="path2142" />
    <path
       d="m 250.776,84.5942 c -0.786,0.4968 -1.348,1.2803 -1.566,2.1845 -0.219,0.9041 -0.077,1.8579 0.396,2.6591 1.22,2.1239 2.858,3.9792 4.813,5.4544 1.163,1.2508 3.78,1.4545 6.107,0.0872 2.326,-1.3672 13.428,-7.4107 18.975,-11.3597 0.407,-0.2798 0.753,-0.6396 1.016,-1.0575 0.264,-0.4179 0.439,-0.885 0.516,-1.373 0.077,-0.4879 0.054,-0.9864 -0.068,-1.4651 -0.123,-0.4786 -0.341,-0.9273 -0.642,-1.3188 l -4.646,-5.818 c -0.55,-0.6886 -1.336,-1.1496 -2.205,-1.2945 -0.87,-0.145 -1.762,0.0363 -2.506,0.509 z"
       fill="#3d3d54"
       id="path2144" />
    <path
       d="m 176.99,147.276 c 0.82,3.013 2.275,5.815 4.268,8.218 2.181,2.546 5.147,4.364 7.997,6.095 l 12.003,7.309 c 1.761,1.012 3.445,2.152 5.039,3.41 3.933,3.244 6.543,7.767 9.08,12.189 l 17.507,30.523 c 0.887,1.564 2.13,3.331 3.926,3.273 0.967,-0.126 1.876,-0.53 2.617,-1.164 2.247,-1.578 4.661,-3.374 5.33,-6.043 0.465,-1.862 0,-3.819 -0.56,-5.666 -2.69,-9.098 -6.907,-17.665 -11.138,-26.181 -6.723,-13.478 -13.545,-26.93 -20.466,-40.355 -1.84,-3.564 -4.072,-9.113 -7.111,-11.731 0,0 -28.237,-1.716 -28.95,1.084 -1.587,6.269 -1.428,12.853 0.458,19.039 z"
       fill="#525263"
       id="path2146" />
    <path
       d="m 176.99,147.276 c 0.82,3.013 2.275,5.815 4.268,8.218 2.181,2.546 5.147,4.364 7.997,6.095 l 12.003,7.309 c 1.761,1.012 3.445,2.152 5.039,3.41 3.933,3.244 6.543,7.767 9.08,12.189 l 17.507,30.523 c 0.887,1.564 2.13,3.331 3.926,3.273 0.967,-0.126 1.876,-0.53 2.617,-1.164 2.247,-1.578 4.661,-3.374 5.33,-6.043 0.465,-1.862 0,-3.819 -0.56,-5.666 -2.69,-9.098 -6.907,-17.665 -11.138,-26.181 -6.723,-13.478 -13.545,-26.93 -20.466,-40.355 -1.84,-3.564 -4.072,-9.113 -7.111,-11.731 0,0 -28.237,-1.716 -28.95,1.084 -1.587,6.269 -1.428,12.853 0.458,19.039 z"
       fill="url(#paint10_linear_15_419)"
       id="path2148"
       style="fill:url(#paint10_linear_15_419)" />
    <path
       d="m 208.747,47.4024 -3.992,1.5782 -2.421,13.5487 8.049,-0.3636 z"
       fill="#68e1fd"
       id="path2150" />
    <path
       d="m 217.195,61.8384 c 0,0.6109 0,1.2218 0,1.8327 0,0.2649 0.014,0.5295 0.044,0.7927 0.043,0.2673 0.101,0.5319 0.174,0.7927 l 1.003,3.9563 0.415,-6.4289 c 1.185,0.5745 2.399,1.0981 3.635,1.5563 -0.093,-0.9635 -0.339,-1.9061 -0.727,-2.7927 -0.727,-1.8617 -1.396,-3.7308 -2.181,-5.5562 -0.184,-0.4876 -0.449,-0.9401 -0.785,-1.3381 -0.17,-0.1974 -0.383,-0.3527 -0.623,-0.4536 -0.239,-0.101 -0.499,-0.1449 -0.759,-0.1282 -0.727,0.3054 -0.269,3.0326 -0.262,3.6362 z"
       fill="#68e1fd"
       id="path2152" />
    <path
       d="m 276.012,81.4089 -14.774,9.3452 c -0.259,0.1398 -0.557,0.1871 -0.847,0.1342 -0.289,-0.0528 -0.552,-0.2028 -0.745,-0.4251 l -4.696,-5.2944 c -0.097,-0.0902 -0.172,-0.2011 -0.219,-0.3245 -0.048,-0.1233 -0.067,-0.2558 -0.055,-0.3874 0.011,-0.1317 0.052,-0.2591 0.119,-0.3726 0.068,-0.1135 0.161,-0.2102 0.271,-0.2828 l 14.802,-9.3379 c 0.259,-0.1398 0.558,-0.1872 0.847,-0.1343 0.29,0.0529 0.553,0.2029 0.745,0.4252 l 4.697,5.2871 c 0.095,0.0922 0.168,0.2049 0.213,0.3295 0.045,0.1246 0.062,0.2578 0.048,0.3896 -0.014,0.1318 -0.058,0.2586 -0.129,0.3709 -0.07,0.1123 -0.165,0.2071 -0.277,0.2773 z"
       fill="#68e1fd"
       id="path2154" />
  </g>
</svg>
