<?xml version="1.0" encoding="UTF-8" standalone="no"?>
<svg
   width="329"
   height="248"
   viewBox="0 0 329 248"
   fill="none"
   version="1.1"
   id="svg244"
   sodipodi:docname="welcome.svg"
   inkscape:version="1.2.1 (9c6d41e410, 2022-07-14)"
   xmlns:inkscape="http://www.inkscape.org/namespaces/inkscape"
   xmlns:sodipodi="http://sodipodi.sourceforge.net/DTD/sodipodi-0.dtd"
   xmlns:xlink="http://www.w3.org/1999/xlink"
   xmlns="http://www.w3.org/2000/svg"
   xmlns:svg="http://www.w3.org/2000/svg">
  <defs
     id="defs242">
    <linearGradient
       id="paint0_linear_9_65"
       x1="169.322"
       y1="271.462"
       x2="161.79"
       y2="166.033"
       gradientUnits="userSpaceOnUse">
      <stop
         stop-opacity="0"
         id="stop102" />
      <stop
         offset="0.49"
         stop-opacity="0.2"
         id="stop104" />
      <stop
         offset="0.52"
         stop-opacity="0.23"
         id="stop106" />
      <stop
         offset="0.99"
         id="stop108" />
    </linearGradient>
    <linearGradient
       id="paint1_linear_9_65"
       x1="156.368"
       y1="404.437"
       x2="165.117"
       y2="99.2694"
       gradientUnits="userSpaceOnUse">
      <stop
         offset="0.01"
         id="stop111" />
      <stop
         offset="1"
         stop-opacity="0"
         id="stop113" />
    </linearGradient>
    <linearGradient
       id="paint2_linear_9_65"
       x1="32161.4"
       y1="23304.3"
       x2="32402.5"
       y2="30808.3"
       gradientUnits="userSpaceOnUse">
      <stop
         offset="0.01"
         id="stop116" />
      <stop
         offset="1"
         stop-opacity="0"
         id="stop118" />
    </linearGradient>
    <linearGradient
       id="paint3_linear_9_65"
       x1="165.992"
       y1="338.501"
       x2="164.194"
       y2="-33.0995"
       gradientUnits="userSpaceOnUse">
      <stop
         offset="0.02"
         stop-color="white"
         stop-opacity="0"
         id="stop121" />
      <stop
         offset="0.58"
         stop-color="white"
         stop-opacity="0.39"
         id="stop123" />
      <stop
         offset="0.68"
         stop-color="white"
         stop-opacity="0.68"
         id="stop125" />
      <stop
         offset="1"
         stop-color="white"
         id="stop127" />
    </linearGradient>
    <linearGradient
       id="paint4_linear_9_65"
       x1="131.639"
       y1="32.0631"
       x2="132.701"
       y2="212.802"
       gradientUnits="userSpaceOnUse">
      <stop
         stop-opacity="0"
         id="stop130" />
      <stop
         offset="0.99"
         id="stop132" />
    </linearGradient>
    <linearGradient
       id="paint5_linear_9_65"
       x1="28720.7"
       y1="14443.3"
       x2="28197.7"
       y2="-5007.58"
       gradientUnits="userSpaceOnUse">
      <stop
         stop-opacity="0"
         id="stop135" />
      <stop
         offset="0.99"
         id="stop137" />
    </linearGradient>
    <linearGradient
       id="paint6_linear_9_65"
       x1="49250.5"
       y1="14414.5"
       x2="49069.7"
       y2="20968.8"
       gradientUnits="userSpaceOnUse">
      <stop
         offset="0.01"
         id="stop140" />
      <stop
         offset="1"
         stop-opacity="0"
         id="stop142" />
    </linearGradient>
    <linearGradient
       id="paint7_linear_9_65"
       x1="24422.5"
       y1="9787.64"
       x2="24554"
       y2="15742.1"
       gradientUnits="userSpaceOnUse">
      <stop
         offset="0.01"
         id="stop145" />
      <stop
         offset="1"
         stop-opacity="0"
         id="stop147" />
    </linearGradient>
    <linearGradient
       id="paint8_linear_9_65"
       x1="210.093"
       y1="92.3068"
       x2="231.877"
       y2="92.3068"
       gradientUnits="userSpaceOnUse">
      <stop
         stop-color="#ECC4D7"
         id="stop150" />
      <stop
         offset="0.42"
         stop-color="#EFD4D1"
         id="stop152" />
      <stop
         offset="1"
         stop-color="#F2EAC9"
         id="stop154" />
    </linearGradient>
    <linearGradient
       id="paint9_linear_9_65"
       x1="9144.35"
       y1="1431.48"
       x2="9144.35"
       y2="1194.25"
       gradientUnits="userSpaceOnUse">
      <stop
         stop-opacity="0"
         id="stop157" />
      <stop
         offset="0.99"
         id="stop159" />
    </linearGradient>
    <linearGradient
       id="paint10_linear_9_65"
       x1="2410.96"
       y1="2864.18"
       x2="2516.71"
       y2="2913.09"
       gradientUnits="userSpaceOnUse">
      <stop
         stop-color="#ECC4D7"
         id="stop162" />
      <stop
         offset="0.42"
         stop-color="#EFD4D1"
         id="stop164" />
      <stop
         offset="1"
         stop-color="#F2EAC9"
         id="stop166" />
    </linearGradient>
    <linearGradient
       id="paint11_linear_9_65"
       x1="2587.54"
       y1="10003.7"
       x2="1705.4"
       y2="9920.65"
       gradientUnits="userSpaceOnUse">
      <stop
         stop-opacity="0"
         id="stop169" />
      <stop
         offset="0.99"
         id="stop171" />
    </linearGradient>
    <linearGradient
       id="paint12_linear_9_65"
       x1="7378.22"
       y1="6885.68"
       x2="8259.81"
       y2="6885.68"
       gradientUnits="userSpaceOnUse">
      <stop
         stop-color="#ECC4D7"
         id="stop174" />
      <stop
         offset="0.42"
         stop-color="#EFD4D1"
         id="stop176" />
      <stop
         offset="1"
         stop-color="#F2EAC9"
         id="stop178" />
    </linearGradient>
    <linearGradient
       id="paint13_linear_9_65"
       x1="1526.24"
       y1="7309.96"
       x2="1579.2"
       y2="7309.96"
       gradientUnits="userSpaceOnUse">
      <stop
         stop-color="#ECC4D7"
         id="stop181" />
      <stop
         offset="0.42"
         stop-color="#EFD4D1"
         id="stop183" />
      <stop
         offset="1"
         stop-color="#F2EAC9"
         id="stop185" />
    </linearGradient>
    <linearGradient
       id="paint14_linear_9_65"
       x1="6461.9"
       y1="11997.7"
       x2="7013.46"
       y2="11997.7"
       gradientUnits="userSpaceOnUse">
      <stop
         stop-color="#ECC4D7"
         id="stop188" />
      <stop
         offset="0.42"
         stop-color="#EFD4D1"
         id="stop190" />
      <stop
         offset="1"
         stop-color="#F2EAC9"
         id="stop192" />
    </linearGradient>
    <linearGradient
       id="paint15_linear_9_65"
       x1="138.459"
       y1="39.055"
       x2="140.457"
       y2="50.9699"
       gradientUnits="userSpaceOnUse">
      <stop
         offset="0.2"
         stop-color="#ECC4D7"
         id="stop195" />
      <stop
         offset="0.37"
         stop-color="#F0DCCE"
         id="stop197" />
      <stop
         offset="1"
         stop-color="#F2EAC9"
         id="stop199" />
    </linearGradient>
    <linearGradient
       id="paint16_linear_9_65"
       x1="5664.4"
       y1="9880.37"
       x2="5991.85"
       y2="9880.37"
       gradientUnits="userSpaceOnUse">
      <stop
         stop-color="#ECC4D7"
         id="stop202" />
      <stop
         offset="0.42"
         stop-color="#EFD4D1"
         id="stop204" />
      <stop
         offset="1"
         stop-color="#F2EAC9"
         id="stop206" />
    </linearGradient>
    <linearGradient
       id="paint17_linear_9_65"
       x1="121.447"
       y1="63.5244"
       x2="120.118"
       y2="64.0258"
       gradientUnits="userSpaceOnUse">
      <stop
         stop-color="#68E1FD"
         id="stop209" />
      <stop
         offset="0.2"
         stop-color="#5DB4CF"
         id="stop211" />
      <stop
         offset="0.46"
         stop-color="#50819B"
         id="stop213" />
      <stop
         offset="0.69"
         stop-color="#475C76"
         id="stop215" />
      <stop
         offset="0.87"
         stop-color="#41455E"
         id="stop217" />
      <stop
         offset="0.99"
         stop-color="#3F3D56"
         id="stop219" />
    </linearGradient>
    <linearGradient
       id="paint18_linear_9_65"
       x1="4282.14"
       y1="1146.82"
       x2="4268.44"
       y2="1326.12"
       gradientUnits="userSpaceOnUse">
      <stop
         stop-opacity="0"
         id="stop222" />
      <stop
         offset="0.99"
         id="stop224" />
    </linearGradient>
    <linearGradient
       id="paint19_linear_9_65"
       x1="11119.4"
       y1="12495.1"
       x2="14633"
       y2="14091.3"
       gradientUnits="userSpaceOnUse">
      <stop
         stop-opacity="0"
         id="stop227" />
      <stop
         offset="0.99"
         id="stop229" />
    </linearGradient>
    <linearGradient
       id="paint20_linear_9_65"
       x1="2482.52"
       y1="4092.73"
       x2="1988.33"
       y2="4165.17"
       gradientUnits="userSpaceOnUse">
      <stop
         stop-color="#ECC4D7"
         id="stop232" />
      <stop
         offset="0.42"
         stop-color="#EFD4D1"
         id="stop234" />
      <stop
         offset="1"
         stop-color="#F2EAC9"
         id="stop236" />
    </linearGradient>
    <clipPath
       id="clip0_9_65">
      <rect
         width="329"
         height="248"
         fill="white"
         id="rect239" />
    </clipPath>
    <clipPath
       id="clip0_9_65-3">
      <rect
         width="329"
         height="248"
         fill="white"
         id="rect662" />
    </clipPath>
    <clipPath
       id="clip0_9_65-3-6">
      <rect
         width="329"
         height="248"
         fill="#ffffff"
         id="rect662-7"
         x="0"
         y="0" />
    </clipPath>
    <linearGradient
       inkscape:collect="always"
       xlink:href="#paint0_linear_9_65"
       id="linearGradient723"
       gradientUnits="userSpaceOnUse"
       x1="169.32201"
       y1="271.46201"
       x2="161.78999"
       y2="166.033" />
    <linearGradient
       inkscape:collect="always"
       xlink:href="#paint1_linear_9_65"
       id="linearGradient725"
       gradientUnits="userSpaceOnUse"
       x1="156.368"
       y1="404.43701"
       x2="165.117"
       y2="99.269402" />
    <linearGradient
       inkscape:collect="always"
       xlink:href="#paint2_linear_9_65"
       id="linearGradient727"
       gradientUnits="userSpaceOnUse"
       x1="32161.4"
       y1="23304.301"
       x2="32402.5"
       y2="30808.301" />
    <linearGradient
       inkscape:collect="always"
       xlink:href="#paint3_linear_9_65"
       id="linearGradient729"
       gradientUnits="userSpaceOnUse"
       x1="165.992"
       y1="338.50101"
       x2="164.194"
       y2="-33.099499" />
    <linearGradient
       inkscape:collect="always"
       xlink:href="#paint4_linear_9_65"
       id="linearGradient731"
       gradientUnits="userSpaceOnUse"
       x1="131.63901"
       y1="32.063099"
       x2="132.701"
       y2="212.802" />
    <linearGradient
       inkscape:collect="always"
       xlink:href="#paint5_linear_9_65"
       id="linearGradient733"
       gradientUnits="userSpaceOnUse"
       x1="28720.699"
       y1="14443.3"
       x2="28197.699"
       y2="-5007.5801" />
    <linearGradient
       inkscape:collect="always"
       xlink:href="#paint6_linear_9_65"
       id="linearGradient735"
       gradientUnits="userSpaceOnUse"
       x1="49250.5"
       y1="14414.5"
       x2="49069.699"
       y2="20968.801" />
    <linearGradient
       inkscape:collect="always"
       xlink:href="#paint7_linear_9_65"
       id="linearGradient737"
       gradientUnits="userSpaceOnUse"
       x1="24422.5"
       y1="9787.6396"
       x2="24554"
       y2="15742.1" />
    <linearGradient
       inkscape:collect="always"
       xlink:href="#paint8_linear_9_65"
       id="linearGradient739"
       gradientUnits="userSpaceOnUse"
       x1="210.093"
       y1="92.306801"
       x2="231.877"
       y2="92.306801" />
    <linearGradient
       inkscape:collect="always"
       xlink:href="#paint9_linear_9_65"
       id="linearGradient741"
       gradientUnits="userSpaceOnUse"
       x1="9144.3496"
       y1="1431.48"
       x2="9144.3496"
       y2="1194.25" />
    <linearGradient
       inkscape:collect="always"
       xlink:href="#paint10_linear_9_65"
       id="linearGradient743"
       gradientUnits="userSpaceOnUse"
       x1="2410.96"
       y1="2864.1799"
       x2="2516.71"
       y2="2913.0901" />
    <linearGradient
       inkscape:collect="always"
       xlink:href="#paint11_linear_9_65"
       id="linearGradient745"
       gradientUnits="userSpaceOnUse"
       x1="2587.54"
       y1="10003.7"
       x2="1705.4"
       y2="9920.6504" />
    <linearGradient
       inkscape:collect="always"
       xlink:href="#paint12_linear_9_65"
       id="linearGradient747"
       gradientUnits="userSpaceOnUse"
       x1="7378.2202"
       y1="6885.6802"
       x2="8259.8096"
       y2="6885.6802" />
    <linearGradient
       inkscape:collect="always"
       xlink:href="#paint13_linear_9_65"
       id="linearGradient749"
       gradientUnits="userSpaceOnUse"
       x1="1526.24"
       y1="7309.96"
       x2="1579.2"
       y2="7309.96" />
    <linearGradient
       inkscape:collect="always"
       xlink:href="#paint14_linear_9_65"
       id="linearGradient751"
       gradientUnits="userSpaceOnUse"
       x1="6461.8999"
       y1="11997.7"
       x2="7013.46"
       y2="11997.7" />
    <linearGradient
       inkscape:collect="always"
       xlink:href="#paint15_linear_9_65"
       id="linearGradient753"
       gradientUnits="userSpaceOnUse"
       x1="138.459"
       y1="39.055"
       x2="140.457"
       y2="50.969898" />
    <linearGradient
       inkscape:collect="always"
       xlink:href="#paint16_linear_9_65"
       id="linearGradient755"
       gradientUnits="userSpaceOnUse"
       x1="5664.3999"
       y1="9880.3701"
       x2="5991.8501"
       y2="9880.3701" />
    <linearGradient
       inkscape:collect="always"
       xlink:href="#paint17_linear_9_65"
       id="linearGradient757"
       gradientUnits="userSpaceOnUse"
       x1="121.447"
       y1="63.524399"
       x2="120.118"
       y2="64.025803" />
    <linearGradient
       inkscape:collect="always"
       xlink:href="#paint18_linear_9_65"
       id="linearGradient759"
       gradientUnits="userSpaceOnUse"
       x1="4282.1401"
       y1="1146.8199"
       x2="4268.4399"
       y2="1326.12" />
    <linearGradient
       inkscape:collect="always"
       xlink:href="#paint19_linear_9_65"
       id="linearGradient761"
       gradientUnits="userSpaceOnUse"
       x1="11119.4"
       y1="12495.1"
       x2="14633"
       y2="14091.3" />
    <linearGradient
       inkscape:collect="always"
       xlink:href="#paint20_linear_9_65"
       id="linearGradient763"
       gradientUnits="userSpaceOnUse"
       x1="2482.52"
       y1="4092.73"
       x2="1988.33"
       y2="4165.1699" />
  </defs>
  <g
     clip-path="url(#clip0_9_65-3-6)"
     id="g523"
     transform="translate(-0.00237588,-0.00100516)">
    <path
       opacity="0.18"
       d="M 94.7207,31.0016 C 81.232,36.4011 66.8156,40.1207 54.9357,48.4791 43.0558,56.8376 34.0717,71.6363 37.9871,85.6242 41.025,96.4567 51.154,104.928 51.6137,116.183 c 0.3677,8.973 -5.566,16.809 -8.7167,25.217 -6.3641,16.989 -0.8608,36.778 10.4007,50.987 11.2614,14.209 27.4955,23.663 44.1265,30.901 39.4128,17.1 82.6088,23.606 125.3098,18.874 12.728,-1.43 25.569,-3.937 36.851,-9.997 11.283,-6.06 20.931,-16.103 24.086,-28.515 4.291,-16.863 -3.736,-35.064 0.652,-51.902 1.717,-6.603 5.278,-12.634 6.794,-19.287 3.648,-16.036 -5.24,-32.414 -16.547,-44.3502 C 263.262,76.1749 249.306,66.8301 238.968,54.0417 231.806,45.1859 226.557,34.8841 219.194,26.1954 204.728,9.0982 181.365,-0.990475 158.951,0.0794093 136.683,1.13676 115.718,22.5888 94.7207,31.0016 Z"
       fill="#c4eaff"
       id="path425" />
    <path
       d="m 87.1155,225.942 0.6393,2.9 c -4.1535,3.014 -9.473,3.732 -14.4706,4.89 -4.9977,1.158 -10.2962,3.168 -12.8745,7.602 3.7149,4.815 10.6347,5.396 16.7146,5.554 49.0297,1.279 98.0827,1.455 147.1597,0.527 15.57,-0.297 31.227,-0.711 46.508,-3.707 1.095,-0.213 2.32,-0.531 2.867,-1.505 0.936,-1.671 -0.836,-3.539 -2.453,-4.517 -5.364,-3.214 -11.511,-4.881 -17.763,-4.819 -2.349,0.029 -5.433,-0.221 -5.972,-2.508 -0.184,-0.835 0.067,-1.671 0.038,-2.507 -0.067,-2.09 -1.86,-3.761 -3.828,-4.388 -1.968,-0.627 -4.099,-0.418 -6.159,-0.23 -38.824,3.736 -78.245,0.836 -117.199,-1.154 -6.176,-0.317 -11.984,3.068 -18.118,2.282 -5.7586,-0.727 -9.9247,-1.855 -15.0895,1.58 z"
       fill="url(#paint0_linear_9_65)"
       id="path427"
       style="fill:url(#linearGradient723)" />
    <path
       d="M 227.965,15.6889 H 101.047 c -8.0818,0 -14.6335,6.5526 -14.6335,14.6356 V 210.742 c 0,8.083 6.5517,14.636 14.6335,14.636 h 126.918 c 8.082,0 14.634,-6.553 14.634,-14.636 V 30.3245 c 0,-8.083 -6.552,-14.6356 -14.634,-14.6356 z"
       fill="#68e1fd"
       id="path429" />
    <path
       d="M 227.965,15.6889 H 101.047 c -8.0818,0 -14.6335,6.5526 -14.6335,14.6356 V 210.742 c 0,8.083 6.5517,14.636 14.6335,14.636 h 126.918 c 8.082,0 14.634,-6.553 14.634,-14.636 V 30.3245 c 0,-8.083 -6.552,-14.6356 -14.634,-14.6356 z"
       fill="url(#paint1_linear_9_65)"
       id="path431"
       style="fill:url(#linearGradient725)" />
    <path
       d="M 165.988,158.414 84.5958,157.9 c -3.0858,-0.017 -6.0518,1.193 -8.246,3.363 -2.1941,2.17 -3.4366,5.123 -3.4543,8.209 l -0.0752,11.995 c -0.0099,1.529 0.2815,3.046 0.8577,4.463 0.5761,1.417 1.4256,2.706 2.5001,3.795 1.0744,1.088 2.3527,1.955 3.7619,2.549 1.4092,0.594 2.9217,0.905 4.451,0.915 l 77.188,0.481 c 5.092,0.04 9.973,2.044 13.623,5.596 l 2.16,2.09 0.121,-19.225 0.029,-4.597 0.046,-7.406 c 0.017,-3.086 -1.193,-6.052 -3.362,-8.247 -2.17,-2.194 -5.123,-3.437 -8.208,-3.455 z"
       fill="url(#paint2_linear_9_65)"
       id="path433"
       style="fill:url(#linearGradient727)" />
    <path
       d="M 232.198,39.803 V 205.66 c -0.002,3.444 -1.371,6.747 -3.806,9.182 -2.435,2.436 -5.737,3.805 -9.181,3.807 H 110.679 c -1.705,0 -3.393,-0.336 -4.968,-0.988 -1.576,-0.653 -3.007,-1.609 -4.212,-2.815 -1.206,-1.206 -2.1624,-2.637 -2.8149,-4.213 -0.6524,-1.575 -0.9882,-3.263 -0.9882,-4.969 V 39.803 c -6e-4,-1.7052 0.3347,-3.3938 0.9866,-4.9694 0.652,-1.5756 1.6075,-3.0073 2.8135,-4.2135 1.205,-1.2061 2.636,-2.163 4.211,-2.8161 1.575,-0.6531 3.263,-0.9895 4.968,-0.99 h 108.524 c 1.706,-0.0011 3.396,0.334 4.973,0.9862 1.577,0.6522 3.01,1.6088 4.217,2.815 1.207,1.2062 2.165,2.6384 2.818,4.2149 0.654,1.5765 0.991,3.2663 0.991,4.9729 z"
       fill="#68e1fd"
       id="path435" />
    <path
       opacity="0.69"
       d="M 232.198,39.803 V 205.66 c -0.002,3.444 -1.371,6.747 -3.806,9.182 -2.435,2.436 -5.737,3.805 -9.181,3.807 H 110.679 c -1.705,0 -3.393,-0.336 -4.968,-0.988 -1.576,-0.653 -3.007,-1.609 -4.212,-2.815 -1.206,-1.206 -2.1624,-2.637 -2.8149,-4.213 -0.6524,-1.575 -0.9882,-3.263 -0.9882,-4.969 V 39.803 c -6e-4,-1.7052 0.3347,-3.3938 0.9866,-4.9694 0.652,-1.5756 1.6075,-3.0073 2.8135,-4.2135 1.205,-1.2061 2.636,-2.163 4.211,-2.8161 1.575,-0.6531 3.263,-0.9895 4.968,-0.99 h 108.524 c 1.706,-0.0011 3.396,0.334 4.973,0.9862 1.577,0.6522 3.01,1.6088 4.217,2.815 1.207,1.2062 2.165,2.6384 2.818,4.2149 0.654,1.5765 0.991,3.2663 0.991,4.9729 z"
       fill="url(#paint3_linear_9_65)"
       id="path437"
       style="fill:url(#linearGradient729)" />
    <path
       opacity="0.6"
       d="m 165.16,46.5149 c 0.38,-1.6717 0.761,-3.3434 0.61,-5.0485 -1.304,1.3395 -3.086,2.1075 -4.956,2.1356 -0.221,-0.0254 -0.446,0.0168 -0.643,0.1212 -0.127,0.1199 -0.224,0.2687 -0.281,0.4339 -0.058,0.1651 -0.075,0.3417 -0.049,0.5147 0,2.0521 -0.034,4.2169 -1.082,5.9764 -1.049,1.7594 -2.854,2.7583 -4.739,3.3433 -4.179,1.329 -8.687,0.7481 -13.012,0.0795 -0.991,-0.1547 -2.027,-0.3302 -2.813,-0.9487 -1.065,-0.8359 -1.429,-2.3237 -1.287,-3.6694 0.142,-1.3457 0.719,-2.6037 1.254,-3.8574 0.836,-1.9852 1.517,-4.104 1.295,-6.2396 -0.221,-2.1356 -1.579,-4.2796 -3.66,-4.8062 -0.437,-0.1331 -0.901,-0.1519 -1.347,-0.0546 -0.446,0.0973 -0.86,0.3075 -1.202,0.6105 -0.327,0.3654 -0.58,0.7913 -0.744,1.2538 -1.772,4.3625 -2.92,8.9534 -3.41,13.6368 -2.415,-0.2257 -4.717,1.003 -7.103,1.3374 -1.534,0.2173 -22.7323,0.3259 -24.2743,0.2214 0,0 -0.2172,2.4365 0.3552,3.2222 0.5725,0.7857 3.6811,0.7983 4.5961,1.1451 6.515,2.5076 13.681,2.3446 20.626,2.9798 11.859,1.0825 26.113,4.8772 36.584,-2.7791 3.256,-2.3822 4.413,-5.7883 5.282,-9.6081 z"
       fill="url(#paint4_linear_9_65)"
       id="path439"
       style="fill:url(#linearGradient731)" />
    <path
       opacity="0.6"
       d="m 181.524,102.638 c 0.205,-3.983 -0.982,-7.9156 -2.587,-11.5683 -1.604,-3.6526 -3.623,-7.1047 -5.219,-10.7615 -0.418,-0.9236 -0.702,-2.1858 0.109,-2.7834 0.25,0.6269 1.224,0.4472 1.709,-0.0251 0.485,-0.4722 0.836,-1.1492 1.508,-1.3039 0.961,1.5525 1.785,3.1858 2.462,4.8814 l 4.747,10.866 c 0.505,1.1618 1.036,2.3612 1.993,3.1887 1.483,1.2789 3.664,1.4001 5.566,1.3541 1.261,-0.0344 2.518,-0.1601 3.76,-0.3761 1.392,-0.2424 2.967,-0.6436 3.786,-1.8305 1.254,-1.8389 0.059,-4.4509 0.836,-6.5447 0.366,-0.8693 0.958,-1.6252 1.713,-2.1899 0.966,-0.7815 2.294,-1.3917 3.423,-0.8693 0.56,0.3136 1.03,0.7654 1.366,1.3123 2.925,4.0789 4.559,9.0773 8.098,12.6254 2.035,-0.0215 3.987,-0.8095 5.466,-2.2066 1.429,-1.3583 2.507,-3.0383 3.623,-4.6557 1.922,-2.775 4.024,-5.433 6.126,-8.0575 l 2.265,-2.8461 c 0.062,-0.0947 0.153,-0.1676 0.259,-0.209 0.259,-0.0668 0.418,0.2633 0.493,0.5266 0.835,3.8408 -1.697,7.5686 -4.413,10.4021 -2.089,2.1858 -4.484,4.2963 -5.954,6.8832 -0.122,0.2132 -0.2,0.4482 -0.23,0.6915 -0.031,0.2434 -0.013,0.4904 0.052,0.7269 0.065,0.2364 0.177,0.4574 0.328,0.6514 0.15,0.193 0.338,0.355 0.552,0.475 0.233,0.133 0.492,0.214 0.76,0.239 4.956,0.418 10.029,-0.556 15.018,0.05 1.509,0.184 3.276,0.748 3.523,2.34 0.047,0.403 -0.005,0.811 -0.151,1.19 -0.145,0.378 -0.38,0.716 -0.685,0.983 -1.061,1.012 -2.507,1.212 -3.911,1.384 -15.808,1.943 -31.758,2.507 -47.67,3.03 -0.627,0.057 -1.259,0.004 -1.868,-0.155 -1.321,-0.418 -2.089,-1.772 -2.837,-2.925 -1.116,-1.684 -2.468,-3.197 -4.016,-4.493 z"
       fill="url(#paint5_linear_9_65)"
       id="path441"
       style="fill:url(#linearGradient733)" />
    <path
       d="m 262.64,114.264 v 10.599 c 0.008,1.345 -0.25,2.678 -0.757,3.923 -0.507,1.245 -1.255,2.378 -2.2,3.334 -0.945,0.957 -2.07,1.717 -3.309,2.239 -1.239,0.522 -2.569,0.794 -3.913,0.802 h -67.536 c -4.469,-0.015 -8.766,1.724 -11.967,4.843 l -1.898,1.835 v -27.583 c -0.005,-2.176 0.68,-4.297 1.956,-6.059 1.277,-1.762 3.079,-3.073 5.148,-3.745 1.001,-0.322 2.046,-0.486 3.097,-0.485 h 71.204 c 1.344,0.007 2.674,0.28 3.913,0.802 1.239,0.521 2.363,1.282 3.307,2.238 0.945,0.957 1.693,2.09 2.2,3.335 0.506,1.245 0.763,2.578 0.755,3.922 z"
       fill="url(#paint6_linear_9_65)"
       id="path443"
       style="fill:url(#linearGradient735)" />
    <path
       d="m 152.307,64.1722 1.755,26.8641 h -1.755 l -1.864,-1.7929 c -3.167,-3.0383 -7.99,-4.1249 -12.373,-4.1249 H 71.6796 c -2.6598,0 -5.2107,-1.0568 -7.0915,-2.9378 -1.8807,-1.881 -2.9373,-4.4322 -2.9373,-7.0924 l 0.6226,-10.9161 c 0,-2.6602 1.0566,-5.2114 2.9374,-7.0924 1.8807,-1.8811 4.4316,-2.9378 7.0914,-2.9378 h 69.9928 c 1.631,-0.0037 3.239,0.3925 4.682,1.1538 1.443,0.7613 2.677,1.8647 3.596,3.2135 1.141,1.667 1.746,3.6427 1.734,5.6629 z"
       fill="url(#paint7_linear_9_65)"
       id="path445"
       style="fill:url(#linearGradient737)" />
    <path
       d="m 154.058,64.1722 v 26.8641 l -1.868,-1.7929 c -3.161,-3.0386 -7.375,-4.7355 -11.759,-4.7351 H 74.0196 c -2.6598,0 -5.2106,-1.0567 -7.0914,-2.9378 -1.8808,-1.881 -2.9374,-4.4322 -2.9374,-7.0923 v -10.306 c 0,-2.6602 1.0566,-5.2114 2.9374,-7.0924 1.8808,-1.8811 4.4316,-2.9378 7.0914,-2.9378 h 70.0094 c 1.631,-0.003 3.238,0.3935 4.681,1.1548 1.443,0.7612 2.678,1.8642 3.597,3.2125 1.146,1.6652 1.757,3.6409 1.751,5.6629 z"
       fill="#ffffff"
       id="path447" />
    <path
       d="m 262.64,113.404 v 10.301 c 0,2.661 -1.057,5.212 -2.937,7.093 -1.881,1.881 -4.432,2.938 -7.092,2.938 h -66.378 c -4.385,0 -8.6,1.697 -11.763,4.735 l -1.88,1.78 v -26.847 c 0,-2.653 1.051,-5.198 2.922,-7.078 1.872,-1.88 4.412,-2.942 7.065,-2.953 h 70.047 c 2.657,0.004 5.205,1.062 7.083,2.943 1.878,1.88 2.933,4.43 2.933,7.088 z"
       fill="#ffffff"
       id="path449" />
    <path
       d="m 189.204,101.334 c -0.418,-0.836 -1.086,-1.4712 -1.496,-2.2819 -0.877,-1.7303 -0.363,-3.8784 0.673,-5.5166 0.418,-0.6813 0.961,-1.3374 1.116,-2.1273 0.179,-0.9278 -0.18,-1.9391 0.209,-2.8001 0.317,-0.6937 1.036,-1.0949 1.671,-1.5379 0.965,-0.6896 1.801,-1.5923 2.892,-2.052 1.09,-0.4597 2.603,-0.2926 3.138,0.769 1.007,-0.4974 2.281,-0.046 3.034,0.7815 0.752,0.8275 1.086,1.9559 1.316,3.0508 0.197,1.2563 0.484,2.4966 0.861,3.7112 0.443,1.1911 1.22,2.3236 2.369,2.8628 2.231,1.0448 5.34,-0.3093 7.104,1.4293 0.902,0.8985 1.224,2.4862 2.448,2.8292 0.631,0.176 1.317,-0.054 1.943,0.113 1.083,0.292 1.53,1.601 1.555,2.721 0.018,1.098 -0.19,2.188 -0.612,3.202 -0.422,1.014 -1.049,1.93 -1.841,2.69 -0.777,0.74 -1.772,1.43 -1.93,2.508 -0.017,0.546 0.025,1.093 0.125,1.63 0.059,0.722 -0.091,1.446 -0.433,2.085 -0.342,0.639 -0.862,1.166 -1.496,1.516 -0.635,0.351 -1.357,0.511 -2.08,0.46 -0.723,-0.05 -1.416,-0.308 -1.996,-0.743 -0.886,-0.66 -1.634,-1.768 -2.737,-1.718 -0.482,0.068 -0.941,0.252 -1.337,0.535 -0.868,0.593 -1.828,1.038 -2.842,1.317 -0.509,0.134 -1.043,0.143 -1.556,0.025 -0.513,-0.118 -0.99,-0.359 -1.389,-0.702 -0.627,-0.615 -0.861,-1.509 -1.166,-2.336 -0.493,-1.338 -1.392,-2.713 -2.792,-2.98 -0.601,-0.113 -1.224,0 -1.826,-0.1 -4.078,-0.657 -1.684,-6.838 -2.925,-9.341 z"
       fill="#3f3d56"
       id="path451" />
    <path
       d="m 221.865,87.2875 c 1.015,-1.6176 1.781,-3.3787 2.273,-5.224 0.214,-0.7738 0.568,-1.5019 1.044,-2.1482 0.047,-0.0648 0.114,-0.1123 0.191,-0.1352 0.077,-0.0228 0.159,-0.0197 0.234,0.0089 0.074,0.0285 0.138,0.081 0.18,0.1492 0.041,0.0681 0.06,0.1483 0.051,0.2279 l -0.167,1.6717 c 0.836,-0.9696 1.826,-2.7458 3.226,-4.221 0.039,-0.0381 0.09,-0.0594 0.144,-0.0594 0.054,0 0.106,0.0213 0.145,0.0594 0.026,0.0278 0.044,0.0624 0.053,0.1001 0.008,0.0376 0.005,0.0767 -0.007,0.113 l -1.129,2.8293 c -0.004,0.0143 -0.006,0.0293 -0.004,0.0442 0.001,0.0149 0.005,0.0294 0.012,0.0426 0.007,0.0132 0.017,0.0249 0.028,0.0344 0.012,0.0095 0.025,0.0166 0.04,0.0209 0.02,0.0062 0.042,0.0064 0.063,4e-4 0.021,-0.0059 0.039,-0.0176 0.054,-0.0338 l 1.671,-2.2526 c 0.907,-0.652 0.802,0.3051 0.719,0.5307 l -1.091,2.0897 c -0.012,0.0287 -0.015,0.0608 -0.007,0.0911 0.009,0.0302 0.027,0.0568 0.052,0.0753 0.025,0.0185 0.056,0.0278 0.088,0.0264 0.031,-0.0014 0.061,-0.0134 0.084,-0.034 0.477,-0.4678 0.983,-0.9034 1.517,-1.3039 0.066,-0.0441 0.144,-0.0647 0.223,-0.0586 0.079,0.0061 0.153,0.0386 0.211,0.0923 0.058,0.0536 0.096,0.1253 0.109,0.2034 0.012,0.078 -0.003,0.1579 -0.041,0.2268 l -1.672,2.3361 c -0.2,0.2801 -0.372,0.443 -0.029,0.418 l 1.203,-0.443 c 0.36,-0.1421 0.188,0.6812 -0.125,0.9027 -1.751,1.2538 -2.461,2.2317 -3.673,3.2723 -1.212,1.0407 -8.988,13.8664 -12.536,18.4134 -1.291,1.651 -3.761,2.75 -4.759,0.092 -0.748,-2.014 1.546,-3.899 2.649,-5.357 3.164,-4.1324 6.156,-8.3994 8.976,-12.8015 z"
       fill="url(#paint8_linear_9_65)"
       id="path453"
       style="fill:url(#linearGradient739)" />
    <path
       d="M 167.672,158.414 86.2798,157.9 c -3.0858,-0.017 -6.0518,1.193 -8.2459,3.363 -2.1942,2.17 -3.4367,5.123 -3.4544,8.209 l -0.0752,11.995 c -0.0099,1.529 0.2816,3.046 0.8577,4.463 0.5761,1.417 1.4256,2.706 2.5001,3.795 1.0744,1.088 2.3527,1.955 3.7619,2.549 1.4092,0.594 2.9217,0.905 4.451,0.915 l 77.176,0.481 c 5.099,0.034 9.988,2.039 13.643,5.596 l 2.16,2.09 0.121,-19.225 0.03,-4.597 0.046,-7.406 c 0.016,-3.086 -1.193,-6.052 -3.363,-8.247 -2.17,-2.194 -5.122,-3.437 -8.208,-3.455 z"
       fill="#ffffff"
       id="path455" />
    <path
       d="m 153.343,21.218 h 26.501 c 0.333,0 0.651,0.1321 0.886,0.3672 0.236,0.2351 0.368,0.554 0.368,0.8866 0,0.3325 -0.132,0.6514 -0.368,0.8865 -0.235,0.2351 -0.553,0.3672 -0.886,0.3672 h -26.501 c -0.332,0 -0.651,-0.1321 -0.886,-0.3672 -0.236,-0.2351 -0.368,-0.554 -0.368,-0.8865 0,-0.3326 0.132,-0.6515 0.368,-0.8866 0.235,-0.2351 0.554,-0.3672 0.886,-0.3672 z"
       fill="url(#paint9_linear_9_65)"
       id="path457"
       style="fill:url(#linearGradient741)" />
    <path
       d="m 153.151,64.8325 c -2.207,0.9528 -2.595,0.8024 -4.956,1.2161 -2.361,0.4138 -4.208,0.1129 -6.456,-0.7271 -1.542,4.7058 -3.18,9.8462 -3.598,14.7777 -0.138,1.4843 -0.376,2.9574 -0.715,4.4091 h -14.207 c -0.042,-0.3176 -0.079,-0.6436 -0.113,-0.9821 -0.375,-4.5405 -0.323,-9.1061 0.155,-13.6368 0.038,-0.2772 0.062,-0.5562 0.071,-0.8359 0.01,-0.2283 -0.006,-0.457 -0.05,-0.6812 -0.122,-0.4823 -0.323,-0.9412 -0.594,-1.3583 -0.564,-0.9904 -1.926,-2.5075 -2.682,-3.6066 -0.101,-0.1505 -0.193,-0.2926 -0.268,-0.418 0.456,-2.0896 2.466,-3.1135 3.402,-5.015 0.694,-1.4543 1.679,-2.7503 2.895,-3.8073 0.393,-0.3303 0.812,-0.6267 1.254,-0.886 1.605,-0.932 3.456,-1.3039 5.303,-1.584 0.288,-0.0459 0.572,-0.0877 0.861,-0.1253 1.184,0.8647 2.593,1.367 4.057,1.446 0.461,-0.01 0.922,0.0392 1.371,0.1463 0.38,0.1449 0.735,0.3479 1.053,0.6018 l 0.56,0.4179 c 1.028,0.7314 2.056,1.4711 3.083,2.2066 0.713,0.5422 1.473,1.0205 2.269,1.4293 2.579,1.2204 3.644,1.1075 6.477,0.7481 0.331,1.7845 0.665,4.4216 0.828,6.2647 z"
       fill="#68e1fd"
       id="path459" />
    <path
       d="m 132.571,51.5759 c -0.74,0.6813 1.412,3.0342 2.194,3.6694 0.781,0.6353 1.968,0.6311 2.958,0.3385 0.66,-0.1922 1.362,-0.5642 1.542,-1.2328 0.06,-0.4761 0.016,-0.9595 -0.129,-1.4168 -0.18,-0.9821 0,-2.0144 -0.268,-2.984 -0.299,-0.9785 -0.908,-1.8334 -1.734,-2.4365 -0.773,-0.606 -2.858,-2.215 -3.289,-0.606 -0.468,1.7135 0.456,3.0634 -1.274,4.6682 z"
       fill="url(#paint10_linear_9_65)"
       id="path461"
       style="fill:url(#linearGradient743)" />
    <path
       d="m 132.404,84.5083 h -8.775 c -0.163,-0.3366 -0.343,-0.6644 -0.539,-0.9821 -0.042,-0.0653 -0.091,-0.1256 -0.147,-0.1797 -0.385,-0.4056 -0.652,-0.9084 -0.773,-1.4544 -1.128,-3.8929 -0.944,-8.0489 0.523,-11.8272 0.134,-0.3797 0.346,-0.7271 0.622,-1.0198 0.451,-0.4806 0.961,-0.7146 1.442,-1.6006 0.948,-1.7427 2.758,-4.7142 3.652,-6.482 0.355,3.4312 -0.978,6.6115 -0.836,10.0552 0.071,2.0061 0.146,4.0455 0.836,5.9346 0.572,1.559 1.476,2.9751 2.649,4.1499 0.435,0.4974 1.116,2.1398 1.346,3.4061 z"
       fill="url(#paint11_linear_9_65)"
       id="path463"
       style="fill:url(#linearGradient745)" />
    <path
       d="m 152.307,58.5386 c 0,0 0.739,5.3953 0.71,5.0861 -0.029,-0.3093 10.551,-3.193 13.572,-13.2106 0.231,-0.3333 0.513,-0.628 0.836,-0.8734 3.761,-2.8085 4.346,-3.9912 3.222,-3.3016 -0.582,0.3995 -1.287,0.5787 -1.989,0.5056 0.414,-0.3486 0.799,-0.7317 1.149,-1.1451 0.443,-0.5391 1.412,-1.0949 1.65,-1.7469 0.035,-0.0729 0.049,-0.1537 0.042,-0.234 -0.022,-0.075 -0.069,-0.1398 -0.134,-0.1834 -0.065,-0.0435 -0.143,-0.0629 -0.221,-0.0548 -0.15,0.0218 -0.294,0.0791 -0.418,0.1671 -0.567,0.3543 -1.11,0.7452 -1.625,1.1702 -0.322,0.2633 -1.208,0.6185 -0.903,0 0.476,-0.9821 1.534,-1.6341 1.814,-2.6872 0.023,-0.0586 0.033,-0.1217 0.029,-0.1847 -0.005,-0.063 -0.023,-0.1241 -0.054,-0.1789 -0.109,-0.1338 -0.326,-0.092 -0.485,0 -0.573,0.2591 -2.298,2.6287 -2.72,2.5744 -0.422,-0.0543 0.455,-2.5326 0.488,-3.0091 0,-0.1295 0,-0.2842 -0.112,-0.3468 -0.062,-0.0225 -0.128,-0.0254 -0.191,-0.0082 -0.063,0.0173 -0.119,0.0537 -0.16,0.1043 -1.104,0.9111 -1.254,2.5075 -1.964,3.7613 -0.095,0.2117 -0.267,0.3792 -0.481,0.4681 -0.455,0.1337 -0.836,-0.3845 -1.299,-0.489 -0.083,-0.0293 -0.173,-0.0293 -0.255,0 -0.255,0.1128 -0.218,0.5099 -0.063,0.7439 2.089,3.1846 -3.23,10.8451 -10.438,13.0727 z"
       fill="url(#paint12_linear_9_65)"
       id="path465"
       style="fill:url(#linearGradient747)" />
    <path
       d="m 121.192,63.9966 c 0,0 -2.193,17.6615 -0.514,20.5117 h 3.648 c -0.747,-5.6751 -0.606,-11.4321 0.418,-17.0638 0,0 -0.321,-2.7792 -3.552,-3.4479 z"
       fill="url(#paint13_linear_9_65)"
       id="path467"
       style="fill:url(#linearGradient749)" />
    <path
       opacity="0.32"
       d="M 109.877,62.9727 H 71.5584 c -1.297,0 -2.3484,1.0516 -2.3484,2.3488 v 0.0041 c 0,1.2972 1.0514,2.3488 2.3484,2.3488 h 38.3186 c 1.297,0 2.348,-1.0516 2.348,-2.3488 v -0.0041 c 0,-1.2972 -1.051,-2.3488 -2.348,-2.3488 z"
       fill="#68e1fd"
       id="path469" />
    <path
       opacity="0.32"
       d="M 109.877,72.5975 H 71.5584 c -1.297,0 -2.3484,1.0516 -2.3484,2.3487 v 0.0042 c 0,1.2972 1.0514,2.3487 2.3484,2.3487 h 38.3186 c 1.297,0 2.348,-1.0515 2.348,-2.3487 v -0.0042 c 0,-1.2971 -1.051,-2.3487 -2.348,-2.3487 z"
       fill="#68e1fd"
       id="path471" />
    <path
       opacity="0.32"
       d="m 253.927,115.176 h -38.318 c -0.623,0 -1.221,-0.248 -1.662,-0.688 -0.441,-0.44 -0.689,-1.038 -0.69,-1.661 0,-0.309 0.06,-0.614 0.178,-0.899 0.118,-0.285 0.291,-0.544 0.509,-0.762 0.218,-0.218 0.477,-0.391 0.762,-0.509 0.285,-0.118 0.591,-0.179 0.899,-0.179 h 38.322 c 0.309,0 0.614,0.061 0.899,0.179 0.285,0.118 0.544,0.291 0.762,0.509 0.218,0.218 0.391,0.477 0.509,0.762 0.118,0.285 0.179,0.59 0.179,0.899 0,0.623 -0.248,1.22 -0.688,1.661 -0.44,0.44 -1.038,0.688 -1.661,0.688 z"
       fill="#68e1fd"
       id="path473" />
    <path
       opacity="0.32"
       d="m 253.927,124.8 h -38.318 c -0.623,0 -1.221,-0.247 -1.662,-0.687 -0.441,-0.441 -0.689,-1.038 -0.69,-1.661 0.001,-0.308 0.062,-0.613 0.181,-0.897 0.119,-0.284 0.293,-0.542 0.511,-0.759 0.218,-0.217 0.478,-0.389 0.762,-0.505 0.285,-0.117 0.59,-0.177 0.898,-0.176 h 38.318 c 0.623,0 1.221,0.248 1.661,0.688 0.44,0.441 0.688,1.038 0.688,1.661 -0.005,0.621 -0.254,1.214 -0.694,1.652 -0.44,0.437 -1.034,0.683 -1.655,0.684 z"
       fill="#68e1fd"
       id="path475" />
    <path
       opacity="0.32"
       d="m 146.022,170.304 h -38.314 c -0.623,0 -1.221,-0.247 -1.662,-0.688 -0.441,-0.44 -0.69,-1.038 -0.691,-1.661 0,-0.624 0.248,-1.222 0.689,-1.664 0.442,-0.441 1.04,-0.689 1.664,-0.689 h 38.314 c 0.623,0 1.22,0.248 1.661,0.688 0.44,0.441 0.687,1.038 0.687,1.661 0.001,0.308 -0.059,0.614 -0.177,0.899 -0.117,0.285 -0.29,0.544 -0.507,0.763 -0.218,0.218 -0.477,0.392 -0.761,0.51 -0.285,0.119 -0.59,0.18 -0.899,0.181 z"
       fill="#68e1fd"
       id="path477" />
    <path
       opacity="0.32"
       d="m 146.026,176.343 h -38.318 c -1.297,0 -2.348,1.051 -2.348,2.349 v 0.004 c 0,1.297 1.051,2.348 2.348,2.348 h 38.318 c 1.297,0 2.349,-1.051 2.349,-2.348 v -0.004 c 0,-1.298 -1.052,-2.349 -2.349,-2.349 z"
       fill="#68e1fd"
       id="path479" />
    <path
       d="m 213.123,107.097 c -0.28,0.79 -0.752,1.496 -1.375,2.056 -1.166,1.066 -2.645,1.735 -3.794,2.817 -2.549,2.399 -2.971,6.231 -3.239,9.721 l -0.931,12.045 h -17.551 c -1.258,0.001 -2.512,0.141 -3.74,0.417 0.226,-3.231 0.421,-6.463 0.585,-9.695 0.31,-6.073 0.322,-12.751 -3.547,-17.445 -0.402,-0.381 -0.679,-0.875 -0.794,-1.416 -0.05,-0.623 0.372,-1.175 0.769,-1.672 0.025,-0.025 0.041,-0.05 0.066,-0.079 l 2.583,-3.156 c 0.131,-0.211 0.302,-0.393 0.505,-0.537 0.202,-0.143 0.431,-0.2449 0.673,-0.2985 0.426,0.0268 0.825,0.2155 1.116,0.5265 0.995,0.906 1.901,1.903 2.708,2.98 0.53,0.669 1.049,1.346 1.6,1.998 2.603,3.075 6.577,5.24 10.33,2.775 2.577,-1.747 5.262,-3.328 8.039,-4.736 1.294,-0.627 2.621,-1.185 3.974,-1.671 -0.079,0.648 0.268,1.174 0.698,1.671 0.463,0.472 0.869,0.995 1.212,1.559 0.159,0.332 0.25,0.692 0.27,1.059 0.019,0.367 -0.034,0.735 -0.157,1.081 z"
       fill="#68e1fd"
       id="path481" />
    <path
       d="m 182.518,103.708 c 0.807,-1.437 1.074,-3.115 0.753,-4.7312 -0.322,-1.5994 -0.836,-3.1542 -1.53,-4.6306 l -4.404,-10.448 c -0.396,-0.852 -0.703,-1.7428 -0.915,-2.658 -0.305,-1.5631 -0.059,-3.1763 0.188,-4.7477 -0.279,-0.0798 -0.578,-0.0499 -0.836,0.0836 0.04,0.4228 -0.048,0.8478 -0.252,1.2202 -0.205,0.3724 -0.515,0.6752 -0.893,0.8694 -0.388,-1.5703 -1.099,-3.0423 -2.089,-4.3213 0.108,1.1674 0.189,2.3376 0.242,3.5106 -0.919,-0.9445 -1.841,-1.8862 -2.766,-2.8252 -0.715,1.2538 1.855,2.587 1.253,3.9076 l -3.033,-2.1857 c -0.222,1.4878 2.185,2.1899 2.315,3.6944 l -2.177,-1.0156 c 0.459,1.1243 1.525,1.8556 2.369,2.7333 3.1,3.264 3.1,8.3167 5.039,12.3747 1.112,2.3362 2.303,4.2461 2.804,6.7995 0.376,1.918 2.027,5.433 3.932,2.37 z"
       fill="url(#paint14_linear_9_65)"
       id="path483"
       style="fill:url(#linearGradient751)" />
    <path
       d="m 116.751,127.12 c 1.816,0 3.288,-1.473 3.288,-3.289 0,-1.817 -1.472,-3.289 -3.288,-3.289 -1.817,0 -3.289,1.472 -3.289,3.289 0,1.816 1.472,3.289 3.289,3.289 z"
       fill="#68e1fd"
       id="path485" />
    <path
       d="m 126.859,127.12 c 1.816,0 3.288,-1.473 3.288,-3.289 0,-1.817 -1.472,-3.289 -3.288,-3.289 -1.817,0 -3.289,1.472 -3.289,3.289 0,1.816 1.472,3.289 3.289,3.289 z"
       fill="#68e1fd"
       id="path487" />
    <path
       d="m 136.967,127.12 c 1.816,0 3.288,-1.473 3.288,-3.289 0,-1.817 -1.472,-3.289 -3.288,-3.289 -1.816,0 -3.289,1.472 -3.289,3.289 0,1.816 1.473,3.289 3.289,3.289 z"
       fill="#68e1fd"
       id="path489" />
    <path
       d="m 197.616,182.921 c 1.816,0 3.288,-1.473 3.288,-3.289 0,-1.817 -1.472,-3.289 -3.288,-3.289 -1.816,0 -3.289,1.472 -3.289,3.289 0,1.816 1.473,3.289 3.289,3.289 z"
       fill="#68e1fd"
       id="path491" />
    <path
       d="m 207.72,182.921 c 1.816,0 3.288,-1.473 3.288,-3.289 0,-1.817 -1.472,-3.289 -3.288,-3.289 -1.816,0 -3.289,1.472 -3.289,3.289 0,1.816 1.473,3.289 3.289,3.289 z"
       fill="#68e1fd"
       id="path493" />
    <path
       d="m 217.824,182.921 c 1.816,0 3.288,-1.473 3.288,-3.289 0,-1.817 -1.472,-3.289 -3.288,-3.289 -1.816,0 -3.289,1.472 -3.289,3.289 0,1.816 1.473,3.289 3.289,3.289 z"
       fill="#68e1fd"
       id="path495" />
    <path
       d="m 184.219,70.9592 c 1.816,0 3.289,-1.4725 3.289,-3.289 0,-1.8165 -1.473,-3.2891 -3.289,-3.2891 -1.816,0 -3.289,1.4726 -3.289,3.2891 0,1.8165 1.473,3.289 3.289,3.289 z"
       fill="#68e1fd"
       id="path497" />
    <path
       d="m 194.327,70.9592 c 1.816,0 3.289,-1.4725 3.289,-3.289 0,-1.8165 -1.473,-3.2891 -3.289,-3.2891 -1.816,0 -3.288,1.4726 -3.288,3.2891 0,1.8165 1.472,3.289 3.288,3.289 z"
       fill="#68e1fd"
       id="path499" />
    <path
       d="m 204.431,70.9592 c 1.816,0 3.289,-1.4725 3.289,-3.289 0,-1.8165 -1.473,-3.2891 -3.289,-3.2891 -1.816,0 -3.288,1.4726 -3.288,3.2891 0,1.8165 1.472,3.289 3.288,3.289 z"
       fill="#68e1fd"
       id="path501" />
    <path
       d="m 145.215,46.7197 c -0.451,1.5714 -1.195,3.1177 -2.452,4.1792 -0.863,0.7199 -1.919,1.167 -3.036,1.2845 -1.117,0.1176 -2.244,-0.0998 -3.237,-0.6245 -0.993,-0.5246 -1.808,-1.3328 -2.341,-2.3218 -0.532,-0.9889 -0.759,-2.114 -0.65,-3.2321 0,-0.1295 0,-0.2883 -0.092,-0.3636 -0.098,-0.0334 -0.204,-0.0334 -0.301,0 -0.614,0.0627 -1.07,-0.5725 -1.254,-1.1576 -0.167,-0.4426 -0.209,-0.9227 -0.121,-1.3875 0.047,-0.2302 0.154,-0.4438 0.311,-0.6192 0.156,-0.1754 0.356,-0.3064 0.579,-0.3797 0.227,-0.0631 0.469,-0.0362 0.676,0.0752 0.207,0.1114 0.363,0.2986 0.436,0.5225 0.086,-0.8698 0.372,-1.7078 0.835,-2.4491 0.469,-0.9658 1.103,-1.8426 1.872,-2.5911 0.825,-0.6955 1.825,-1.1519 2.891,-1.3199 1.066,-0.1679 2.157,-0.041 3.156,0.367 0.887,0.3667 1.686,0.9189 2.342,1.6195 0.657,0.7006 1.156,1.5334 1.465,2.4428 0.242,0.8358 -0.113,1.5588 -0.276,2.3738 -0.272,1.1618 -0.46,2.4156 -0.803,3.5816 z"
       fill="url(#paint15_linear_9_65)"
       id="path503"
       style="fill:url(#linearGradient753)" />
    <path
       d="m 134.025,43.485 c -0.025,0.0336 -0.057,0.0615 -0.094,0.0817 -0.037,0.0201 -0.077,0.0322 -0.119,0.0353 -0.163,0 -0.205,-0.2257 -0.217,-0.3845 0.003,-0.3922 -0.147,-0.7703 -0.418,-1.0532 -0.067,-0.0673 -0.147,-0.1208 -0.235,-0.1572 -0.088,-0.0365 -0.182,-0.0553 -0.277,-0.0553 -0.095,0 -0.189,0.0188 -0.277,0.0553 -0.088,0.0364 -0.168,0.0899 -0.235,0.1572 -0.275,-1.8374 0.116,-3.7127 1.103,-5.2867 0.122,-0.1508 0.201,-0.331 0.23,-0.5224 0,-0.2466 -0.142,-0.489 -0.096,-0.7314 0.053,-0.1757 0.16,-0.3305 0.305,-0.443 0.439,-0.454 0.97,-0.8076 1.559,-1.0364 0.29,-0.1133 0.603,-0.1542 0.912,-0.1193 0.31,0.035 0.606,0.1448 0.864,0.3199 1.331,-0.7855 2.845,-1.2078 4.391,-1.2246 0.898,-0.0196 1.792,0.1322 2.633,0.4472 1.516,0.6297 2.742,1.8026 3.439,3.2891 0.681,1.485 0.928,3.1321 0.714,4.7518 -1.356,0.6136 -2.9,0.6702 -4.298,0.1575 -1.398,-0.5127 -2.539,-1.5537 -3.177,-2.8991 -0.122,0.6553 -0.05,1.3318 0.205,1.9475 -0.51,-0.2519 -0.953,-0.6192 -1.296,-1.0727 -0.342,-0.4534 -0.574,-0.9805 -0.677,-1.5393 -0.313,-0.2925 -0.79,0.0794 -1.049,0.4179 -0.668,0.8818 -1.287,1.9183 -2.089,2.6747 -0.361,0.2693 -0.693,0.5761 -0.99,0.9153 -0.322,0.3928 -0.456,0.8985 -0.811,1.2747 z"
       fill="#3f3d56"
       id="path505" />
    <path
       d="m 198.518,108.305 c -0.146,1.166 -1.232,2.169 -2.415,2.453 -0.299,0.079 -0.611,0.105 -0.919,0.075 -1.672,-0.171 -2.432,-2.236 -2.399,-3.92 0.034,-1.684 0.418,-3.402 -0.351,-4.835 0,-0.046 -0.046,-0.092 -0.071,-0.138 -0.418,-0.74 -1.149,-1.291 -1.521,-2.0646 -0.342,-0.8737 -0.418,-1.8292 -0.217,-2.7458 0.497,-3.4938 3.234,-12.7258 8.508,-9.2695 1.366,0.8943 2.181,2.4406 2.649,4.0037 1.655,5.5124 -1.88,5.4163 -3.264,16.4412 z"
       fill="url(#paint16_linear_9_65)"
       id="path507"
       style="fill:url(#linearGradient755)" />
    <path
       d="m 197.043,88.9885 c 0.707,0.4179 1.058,1.2537 1.216,2.0896 0.456,2.3194 -0.284,4.6849 -0.697,7.0127 -0.414,2.3282 -0.418,5.0152 1.215,6.7282 l 0.038,0.042 c 0.621,0.632 1.468,0.992 2.354,1 0.887,0.007 1.74,-0.337 2.372,-0.958 0.317,-0.309 0.569,-0.678 0.74,-1.087 0.079,-0.179 0.171,-0.355 0.267,-0.526 0.635,-1.124 1.521,-2.09 2.152,-3.218 0.514,-0.9491 0.869,-1.9753 1.053,-3.0385 0.233,-1.0833 0.24,-2.2029 0.021,-3.2891 -0.418,-1.8221 -1.671,-3.3434 -2.983,-4.6431 -1.313,-1.2997 -2.646,-2.3947 -4.304,-2.9714 -1.659,-0.5768 -3.64,-0.4848 -5.015,0.5976 -0.418,0.3343 -1.567,1.6717 -0.969,2.2568 0.505,0.4513 1.801,-0.4472 2.54,0.0042 z"
       fill="#3f3d56"
       id="path509" />
    <path
       d="m 121.623,63.9966 -1.91,-1.0239 1.383,1.8849 0.092,-0.861 z"
       fill="url(#paint17_linear_9_65)"
       id="path511"
       style="fill:url(#linearGradient757)" />
    <path
       d="m 141.739,65.3215 c 0.059,-0.4798 0.299,-0.9191 0.669,-1.2293 0.371,-0.3102 0.846,-0.4683 1.328,-0.4424 1.872,-0.0544 9.135,-1.0114 9.135,-1.0114 l 0.28,2.2066 c 0,0 -6.423,2.7165 -11.412,0.4765 z"
       fill="url(#paint18_linear_9_65)"
       id="path513"
       style="fill:url(#linearGradient759)" />
    <path
       opacity="0.18"
       d="m 152.307,58.5386 v 0.9779 c 0,0 -6.348,1.7093 -13.046,-5.1864 l -0.418,-1.1828 c 0.38,0.145 0.735,0.348 1.053,0.6018 l 0.56,0.418 3.084,2.2066 c 0.713,0.5422 1.472,1.0205 2.269,1.4293 2.578,1.2203 3.644,1.1075 6.477,0.7481 z"
       fill="#ffffff"
       id="path515" />
    <path
       opacity="0.18"
       d="m 132.918,53.1515 c 0,0 -6.598,-0.3218 -9.732,7.2008 -0.673,1.6049 -2.328,3.2431 -2.328,3.2431 l -0.869,-0.1839 c -0.1,-0.1504 -0.192,-0.2925 -0.267,-0.4179 0.455,-2.0896 2.465,-3.1135 3.401,-5.0151 0.694,-1.4543 1.68,-2.7502 2.896,-3.8073 0.392,-0.3303 0.811,-0.6267 1.253,-0.8859 1.605,-0.932 3.456,-1.304 5.303,-1.584 z"
       fill="#ffffff"
       id="path517" />
    <path
       d="m 213.123,107.097 c -0.28,0.79 -0.752,1.496 -1.375,2.056 -1.166,1.066 -2.645,1.735 -3.794,2.817 -2.549,2.399 -2.971,6.231 -3.239,9.721 l -0.931,12.045 h -13.259 c 0,0 7.225,-14.678 9.193,-18.565 1.968,-3.886 7.985,-6.444 7.985,-6.444 4.689,-3.636 5.42,-1.63 5.42,-1.63 z"
       fill="url(#paint19_linear_9_65)"
       id="path519"
       style="fill:url(#linearGradient761)" />
    <path
       d="m 196.312,110.553 c -0.059,0.079 -0.129,0.148 -0.209,0.205 -0.299,0.079 -0.611,0.105 -0.919,0.075 -1.672,-0.171 -2.432,-2.236 -2.399,-3.92 0.034,-1.684 0.656,-3.31 -0.739,-5.433 0.731,0.531 1.7,0.861 3.823,0.999 1.534,0.084 0.614,7.853 0.443,8.074 z"
       fill="url(#paint20_linear_9_65)"
       id="path521"
       style="fill:url(#linearGradient763)" />
  </g>
</svg>
